<?xml version="1.0" encoding="UTF-8"?><svg id="_レイヤー_2" xmlns="http://www.w3.org/2000/svg" viewBox="0 0 41.43 34.58"><g id="main"><path d="m.11,1.8c3.44,8.54,7.89,16.64,13.38,24.04,1.38,1.87,2.82,3.69,4.31,5.47,1.26,1.49,2.7,3.01,4.74,3.24,4.42.5,6.94-5.02,8.93-8.04,3.23-4.9,6.47-9.81,9.7-14.71,1.07-1.62-1.53-3.12-2.59-1.51-2.52,3.81-5.03,7.63-7.55,11.44-1.26,1.91-2.52,3.81-3.77,5.72-.89,1.35-1.93,3.42-3.55,4.02-1.73.63-3.13-1.49-4.07-2.61-1.32-1.59-2.6-3.21-3.82-4.88-2.42-3.3-4.65-6.74-6.68-10.3C6.82,9.59,4.76,5.36,3.01,1,2.3-.77-.61,0,.11,1.8H.11Z" style="fill:#fff;"/></g></svg>