<?xml version="1.0" encoding="UTF-8"?><svg id="_レイヤー_2" xmlns="http://www.w3.org/2000/svg" viewBox="0 0 129.35 134.13"><g id="main"><path d="m68.13,129.27c3.29-4.75,4.4-10.58,6.26-15.97,2.48-9.11,5.96-17.91,7.98-27.12,2.9,6.75,5.53,13.61,8.67,20.25,2.15,4.49,2.8,9.82,6.28,13.59,1.64,1.89,4.44,2.2,6.72,1.47,4.67-1.42,8.88-4.03,13.53-5.56,1.75-.83,4.32-1.08,5.04-3.21.71-1.74.49-3.68-.71-5.14-5.34-8.44-11.98-15.95-18.46-23.48,3.55-.66,7.17-1.21,10.6-2.39,4.41-1.71,7.07-5.94,9.42-9.8,1.52-2.77,4.01-5.02,4.89-8.12,1.59-4.68.98-9.66.16-14.4-1.05-5.82-1.38-11.72-2.35-17.53-1.35-10.33-5.48-20.16-11.19-28.86-1.32-2.15-3.9-3.35-6.37-2.92-8.61,1.09-17.11,2.91-25.74,3.76-13.11,1.28-26.1,3.58-39.14,5.49-7.42,1.29-15.01,1.59-22.36,3.35-4.29.96-9.38,1.52-12.13,5.4-2.24,3.04-5.3,5.38-7.47,8.49-2.31,3.41-1.86,7.75-1.43,11.65.86,5.85,1.59,11.74,3.01,17.5,2.14,8.95,3.32,18.14,6.08,26.95,1.42,4.36,2.09,9.24,5.2,12.83,2,2.42,5.37,3,8.33,3.17,6.88.02,13.71-.94,20.39-2.57,5.44-.9,10.88-1.91,16.23-3.22-1.99,6.14-3.8,12.32-5.59,18.5-1.59,5.63-4,10.97-5.32,16.65-.86,2.48.9,4.99,3.04,6.11,3.31-.41,6.5-1.53,9.86-1.78,2.46-.21,5.16-.83,6.55-3.08Zm38-35.2c4.29,5.28,8.6,10.58,12.28,16.35-5.5,1.57-10.41,4.69-15.94,6.07-2.5.9-3.63-1.73-4.47-3.5-4.44-10.64-10.41-20.6-14-31.58,3.3-.62,6.61-1.33,9.9-2.12,4.53,4.53,8.05,9.9,12.23,14.77ZM11.37,23.95c.21-3,2.83-5.1,5.59-5.81,10.54-3.07,21.58-3.8,32.41-5.42,14.55-2.9,29.37-4.34,43.95-7.26,5.92-.54,11.85.38,17.79-.33,3.91,5.91,7.2,12.26,9.16,19.11,2.69,7.75,2.67,16.06,4.41,24.03.68,4.93,1.74,10.51-.89,15.08-2.64,3.67-7.23,5.06-11.31,6.41-13.47,4.11-27.19,7.49-41.03,10.07-10.82,1.55-21.35,4.66-32.27,5.56-3.32.29-6.73.95-10.01.14-3.64-1.16-5.2-5.05-6.36-8.31-2.3-7.81-4.49-15.69-6.13-23.67-2.21-9.75-6.08-19.41-5.3-29.61Zm42.55,104.35c4.34-14.39,7.84-29.01,11.53-43.59,4.46-.65,8.91-1.3,13.31-2.31-1.67,7.89-4.66,15.39-6.83,23.12-1.64,5.61-3.18,11.28-5.21,16.76-.82,1.76-1.61,3.8-3.38,4.78-3.12.54-6.29.74-9.42,1.24Z" style="fill:#fff;"/><path d="m100.52,19.17c-.06,1.5,1.72,1.31,2.78,1.43,2.84-.22,5.35-1.78,7.72-3.23-3.58-.43-7.36-.02-10.5,1.81Z" style="fill:#fff;"/><path d="m110.93,13.33c-4.45-3.22-9.92-.49-14.37,1.28,4.29,3.12,10.04.64,14.37-1.28Z" style="fill:#fff;"/><path d="m56.92,63.86c9.01,5.11,20.69,3.93,29.15-1.74,9.34-6.14,14.37-18.33,11.62-29.23-1.33-6.08-5.82-11.17-11.39-13.79-7.08-3.53-15.57-3.52-22.9-.82-8.9,3.23-16.6,10.66-18.66,20.08-2.32,10.03,3.22,20.74,12.17,25.5Zm-9.54-22.56c1.23-9.58,9.28-17.16,18.19-20.01,7.79-2.44,17.14-1.46,23.42,4.11,4.17,3.59,5.82,9.44,5.26,14.79-.97,9.23-7.94,17.22-16.43,20.57-7.69,2.92-17.11,2-23.57-3.35-4.68-3.82-7.8-9.97-6.88-16.11Z" style="fill:#fff;"/><path d="m71.37,56.69c11.28-1.45,16.64-16.95,9.76-25.58-4.33-5.11-12.24-5.95-17.92-2.71-5.52,2.73-9.08,8.97-8.31,15.11.6,7.88,8.46,14.82,16.47,13.18Z" style="fill:#fff;"/><path d="m52.15,77.59c1.14-2.5,1.65-5.23,1.1-7.92-2.12.7-4.2,1.56-6.11,2.73,1.3,2.03,2.86,3.98,5.01,5.19Z" style="fill:#fff;"/><path d="m44.06,77.61c1.1-1.8,1.12-4.01,1.46-6.03-2.1-.56-4.19.07-6.21.63.28,2.45,1.73,5.91,4.76,5.4Z" style="fill:#fff;"/><path d="m35.56,78.3c2.37-1.26,2.36-4.44,2.2-6.76-1.52-.77-3.27-.43-4.57.53-2.41,2.07,0,5.36,2.37,6.24Z" style="fill:#fff;"/></g></svg>