<?xml version="1.0" encoding="UTF-8"?><svg id="_レイヤー_2" xmlns="http://www.w3.org/2000/svg" viewBox="0 0 128.26 168.67"><g id="main"><path d="m120.7,82.73l-3.63,3.32-4.35.2-4.33.19-4.38-.41-4.21,1.73-4.35-.09-4.38-.73-4.26,1.63-4.38-1.04-4.33.88-4.33-.51-4.28-.36-2.12,2.9-.14,4.86.03,4.86.65,4.85,1.78,3.17,4.08-1.36,4.2.55,4.13-.66,4.14-.71,4.2.79,4.15-.9,4.18-.09,4.18.95,4.15-.81,4.14-.2,2.3,2.74-.03,4.13.11,4.14-.67,4.09-.09,4.17-1.38,3.92-2.8,2.42-4.33-.14-4.32.05-4.26,1.26-4.34-.37-4.28.9-4.35-.34-4.3.57-4.33-.18-4.3-.09-2,3.15.04,5.19-.58,5.18,2.33,2.78,4.05-.28,4.06.54,4.03-.95h4.05s4.04-.56,4.04-.56l4.06-.24,4.1.89,4.05-.23,4.02-.51,2.87,2.47-.25,3.68-.34,3.63-1.29,3.47-1.89,2.51-4.12,1.24-4.26.24-4.24.34-4.26.19-4.23.66-4.25.37-4.28-.45-4.25.66-4.28-.99-4.26.35-4.26.95-4.26.06-4.26-.51-4.25-.58-4.24-.56-4.29.68-4.25.36-3.01-3.09-.62-4.23-1.86-3.89.08-4.38-1.14-4.08-1.35-4.04-.46-4.23-1.94-3.94.34-4.38-1.32-4.07-.43-4.22-.63-4.19-.93-4.15-.38-4.23-.61-4.2-1.09-4.14-.32-4.24-.1-4.27-.91-4.17-.6-4.21v-4.27s-.22-4.24-.22-4.24l-.41-4.22-.13-4.24-.93-4.18.41-4.29-.44-4.22-1.21-4.17.13-4.25-.91-4.19.9-4.29-.32-4.22-.68-4.21-.18-4.22,2.41-2.79,3.92-1.36,4-1.03,4.22.56,4-1.04,4.07-.51,4.03-.93,4.13.02,4.14.27,4.05-.8,4.12.18,4.08-.49,4.11.23,4.09-.47,4.1-.46,4.11.48,4.1-.03,4.14-.72,4.05,1.33,4.13-.22,4.03.96,4.2-.61,4.01,1.05,4.1.36,3.94,1.27,4.04.7,4.12.43,3.75,1.79,2.9,3.31-1.1,4.31.8,4.35.02,4.34-.82,4.3.47,4.39-1.06,4.26.24,4.39-.79,4.28-1.09,4.23-.13,4.39-1.07,4.22-1.34,4.15-.26,4.41Z" style="fill:none; stroke:#fff; stroke-miterlimit:10; stroke-width:2.64px;"/><path d="m110.33,67.75l-3.63,3.32-4.35.2-4.33.19-4.38-.41-4.21,1.73-4.35-.09-4.38-.73-4.26,1.63-4.38-1.04-4.33.88-4.33-.51-4.28-.36-2.12,2.9-.14,4.86.03,4.86.65,4.85,1.78,3.17,4.08-1.36,4.2.55,4.13-.66,4.14-.71,4.2.79,4.15-.9,4.18-.09,4.18.95,4.15-.81,4.14-.2,2.3,2.74-.03,4.13.11,4.14-.67,4.09-.09,4.17-1.38,3.92-2.8,2.42-4.33-.14-4.32.05-4.26,1.26-4.34-.37-4.28.9-4.35-.34-4.3.57-4.33-.18-4.3-.09-2,3.15.04,5.19-.58,5.18,2.33,2.78,4.05-.28,4.06.54,4.03-.95h4.05s4.04-.56,4.04-.56l4.06-.24,4.1.89,4.05-.23,4.02-.51,2.87,2.47-.25,3.68-.34,3.63-1.29,3.47-1.89,2.51-4.12,1.24-4.26.24-4.24.34-4.26.19-4.23.66-4.25.37-4.28-.45-4.25.66-4.28-.99-4.26.35-4.26.95-4.26.06-4.26-.51-4.25-.58-4.24-.56-4.29.68-4.25.36-3.01-3.09-.62-4.23-1.86-3.89.08-4.38-1.14-4.08-1.35-4.04-.46-4.23-1.94-3.94.34-4.38-1.32-4.07-.43-4.22-.63-4.19-.93-4.15-.38-4.23-.61-4.2-1.09-4.14-.32-4.24-.1-4.27-.91-4.17-.6-4.21v-4.27s-.22-4.24-.22-4.24l-.41-4.22-.13-4.24-.93-4.18.41-4.29-.44-4.22-1.21-4.17.13-4.25-.91-4.19.9-4.29-.32-4.22-.68-4.21-.18-4.22,2.41-2.79,3.92-1.36,4-1.03,4.22.56,4-1.04,4.07-.51,4.03-.93,4.13.02,4.14.27,4.05-.8,4.12.18,4.08-.49,4.11.23,4.09-.47,4.1-.46,4.11.48,4.1-.03,4.14-.72,4.05,1.33,4.13-.22,4.03.96,4.2-.61,4.01,1.05,4.1.36,3.94,1.27,4.04.7,4.12.43,3.75,1.79,2.9,3.31-1.1,4.31.8,4.35.02,4.34-.82,4.3.47,4.39-1.06,4.26.24,4.39-.79,4.28-1.09,4.23-.13,4.39-1.07,4.22-1.34,4.15-.26,4.41Z" style="fill:none; stroke:#fff; stroke-miterlimit:10; stroke-width:2.64px;"/><path d="m65.74,115.49c.47.81,32.01-19.43,32.42-18.72.58,1-19.25,18.3-19.09,18.59.64,1.1,20.47-12.52,20.77-11.99.15.25-8.97,11.1-8.93,11.18.22.39,7.51-4.48,7.57-4.37.02.04-1.79,3.56-1.74,3.64.23.4,1.17-.79,1.22-.7" style="fill:none; stroke:#fff; stroke-linecap:round; stroke-linejoin:round; stroke-width:3.46px;"/><path d="m62.31,71.59c.78,1.34,48.82-29.87,49.55-28.61.39.67-37,25.99-36.59,26.69.29.5,34.8-22.23,35.72-20.62.3.51-29.31,21.64-29.03,22.12.59,1.03,24.85-15.88,25.51-14.73.24.42-2.39,11.08-2.17,11.47.15.25.42-.59.57-.33" style="fill:none; stroke:#fff; stroke-linecap:round; stroke-linejoin:round; stroke-width:3.46px;"/><path d="m7.05,11.45c.1.17,6.45-3.94,6.54-3.78.28.48-7.24,10.64-7.16,10.77.27.46,22.61-14.5,23.24-13.42.55.95-21.55,18.25-21.1,19.04.78,1.34,32.62-20.98,33.55-19.37.57.98-36.87,25.45-36.7,25.74.25.43,41.68-26.57,42.77-24.69.19.33-42.45,27.68-42.05,28.37.34.59,50.8-30.77,51.43-29.69.67,1.17-51.89,38.35-50.61,40.57.57.98,69.72-43.14,70.97-40.97.27.47-71.03,42.47-69.91,44.39,1.87,3.23,75.93-44.58,76.25-44.02.94,1.63-76.41,51.54-74.83,54.28.52.91,87.17-51.96,87.88-50.74,1.67,2.9-88.66,52.38-86.91,55.42,2.04,3.53,91.43-54.03,91.97-53.1.82,1.42-92.82,56.31-91.31,58.93,1.27,2.19,98.48-59.85,99.77-57.6.74,1.27-102.41,62.86-101.03,65.26.82,1.42,100.73-61.51,102.18-59,1.97,3.41-99.4,62.86-98.49,64.43,2.39,4.14,97.33-59.93,98.94-57.13,1.03,1.78-100.09,60.85-99.46,61.95,1.59,2.76,97.29-58.43,98.27-56.73,2.3,3.98-97.27,63.56-95.71,66.27.87,1.51,94.02-56.02,94.78-54.72,1.57,2.72-98.33,54.42-96.22,58.08.95,1.64,35.77-21.57,36.16-20.88.26.45-36.7,28.1-36.02,29.28.5.86,34.62-22.72,35.8-20.67.5.87-32.26,20.72-31.93,21.3.62,1.08,33.17-20.92,33.94-19.59.41.71-36.98,28.35-36.66,28.91.41.71,37.87-24.54,39.03-22.53.65,1.12-34.15,25.07-34.01,25.31.61,1.06,45.14-28.91,46.37-26.77.61,1.06-45.37,34.11-44.86,34.98.9,1.56,61.79-38.95,63.21-36.49,1.2,2.09-64.09,40.72-63.88,41.08,1.57,2.72,68.07-39.98,68.37-39.47.27.47-69.74,39.67-68.46,41.88.42.73,72.58-43.49,73.27-42.3,1.85,3.21-70.19,49.06-69.23,50.71.86,1.49,27.18-16.41,27.49-15.87.5.86-17.71,18.59-17.59,18.8.54.93,17.42-10.29,17.52-10.12.18.31-15.05,11.8-14.74,12.34.36.63,23.35-14.75,23.9-13.8.11.19-10.62,13.47-10.54,13.62.25.43,24.96-15.17,25.29-14.6.31.53-11.6,12.72-11.32,13.2.53.92,21.56-13.46,22-12.7.37.63-10.47,12.31-10.19,12.8.62,1.07,17.82-11.19,18.21-10.51.23.39-4.62,10.53-4.52,10.71.23.4,4.62-3.08,4.8-2.77" style="fill:none; stroke:#fff; stroke-linecap:round; stroke-linejoin:round; stroke-width:3.46px;"/><path d="m92.62,137.06c-.31.21,2.93,3.87,2.71,4.02-.06.04-5.18-1.46-5.27-1.4-.31.21,3.78,4.88,3.45,5.11-.15.1-7.26-6.85-7.36-6.79-.1.07,6.47,8.62,6.02,8.93-.21.14-11.26-7.09-11.41-6.99-.38.26,5.46,7.22,5.06,7.49-.18.12-8.89-9.82-9.13-9.66-.18.12,6.83,9.41,6.5,9.63-.18.12-17.55-10.23-17.82-10.06-.43.29,6.65,8.81,6.17,9.14-.25.17-8.01-6.28-8.1-6.21-.3.2,5.15,7.21,4.95,7.34" style="fill:none; stroke:#fff; stroke-linecap:round; stroke-linejoin:round; stroke-width:3.46px;"/><path d="m98.06,95.54c-.22.15,2.37,2.65,1.97,2.92-.06.04-8.51-4.54-8.64-4.46-.33.22,6.89,9.87,6.73,9.98-.3.2-9.62-7.82-10.05-7.53-.91.62,9.58,12.52,8.8,13.05-.44.3-19.56-13.64-19.77-13.51-.91.61,11.79,15.81,11.02,16.33-.6.41-14.62-17.33-14.97-17.09-.77.52,12.72,17.81,12.23,18.14-.38.26-22.72-18.16-23.39-17.7-.48.32,13.06,17.82,12.35,18.3" style="fill:none; stroke:#fff; stroke-linecap:round; stroke-linejoin:round; stroke-width:3.46px;"/><path d="m109.51,11.14c-.15.1,3.06,4.25,2.93,4.34-.48.32-11.42-6.94-11.55-6.85-.38.26,13.23,17.68,12.33,18.28-.84.57-18.44-18.21-19.13-17.75-1.1.74,18.94,25.23,17.62,26.12-.82.55-24.72-30.11-24.95-29.95-.35.24,24.25,32.63,22.71,33.67-.27.18-26.38-33.98-26.94-33.6-.48.33,28.42,40.23,27.54,40.83-.99.67-37.87-42.62-39.75-41.35-.8.54,40,55.51,38.24,56.69-.38.25-40.44-57.08-42-56.03-2.61,1.76,41.39,60.4,40.94,60.7-1.35.91-49.83-61.58-52.08-60.06-.65.44,41.67,59.89,40.8,60.48-2.03,1.37-43.68-61.23-45.81-59.79-2.38,1.61,40.34,58.45,39.71,58.87-.93.63-44.21-59.61-45.92-58.46-1.4.94,42.44,59.82,41,60.79-.8.54-47.65-63.18-49.17-62.16-.9.61,44.05,61.85,42.45,62.93-2.12,1.43-47.06-60.16-48.04-59.51-2.65,1.79,42.61,59.3,40.81,60.51-1.11.75-45.21-61.5-45.9-61.04-1.77,1.19,41.72,59.51,40.63,60.24-2.51,1.69-48.78-58.94-50.49-57.79-.98.66,40.14,57.69,39.3,58.26-1.7,1.15-40.57-61.16-42.86-59.62-2.47,1.67,41.75,59.66,40.71,60.36-.71.48-46.87-60.35-48.72-59.11-1.54,1.04,52.36,69.72,48.7,72.19-1.74,1.17-45.67-65.77-46.83-64.99-2.51,1.7,66.94,92.58,63.85,94.66C68.04,114.06,5.07,26.63,3.84,27.46c-1.4.95,61.46,82.57,57.5,85.25-2.28,1.54-53.83-72.06-54.31-71.73-1.54,1.04,52.48,71.08,49.36,73.18-1.34.9-47.24-58.35-48.34-57.61-1.7,1.15,50.01,68.35,47.33,70.17-2.1,1.42-47.32-64.43-47.68-64.19-3.22,2.17,56.78,82.86,56.17,83.27-.55.37-53.59-81.35-56.16-79.61-.79.53,55.47,79.47,54.19,80.34-2.8,1.89-49.64-60.06-51.07-59.1-2.76,1.86,41.34,59.15,40.35,59.82-1.82,1.23-37.17-42.66-37.61-42.37-1.64,1.1,27.86,40.65,27.56,40.86-.72.49-27.39-37.38-28.65-36.54-.94.63,27.78,38.13,26.36,39.08-.34.23-22.87-22.81-23.13-22.63-.4.27,16.39,23.15,15.86,23.51-.37.25-10.64-6.18-10.97-5.95-.39.26,3.09,3.9,2.78,4.11-.11.07-2.58,1.19-2.66,1.25-.18.12.34.26.23.34" style="fill:none; stroke:#fff; stroke-linecap:round; stroke-linejoin:round; stroke-width:3.46px;"/></g></svg>