<?xml version="1.0" encoding="UTF-8"?><svg id="_レイヤー_2" xmlns="http://www.w3.org/2000/svg" viewBox="0 0 49.86 23.66"><g id="main"><path d="m19.59,23.12c2.44.11,4.87.14,7.3.24,2.88-.07,5.75.22,8.63.2,4.11.13,8.23-.03,12.34.1.41-.02.95,0,1.16-.44.43-.76.67-1.63.79-2.5.1-.99.11-2.03-.32-2.94-.62-1.41-1.99-2.4-3.47-2.76-1.37-.33-2.79-.32-4.19-.37.1-1.47.2-2.96-.15-4.42-.64-2.91-2.03-5.84-4.53-7.61-2.26-1.56-4.96-2.59-7.72-2.62-2.66.02-5.43.91-7.3,2.87-1.76,1.91-2.41,4.55-2.69,7.06-.64-.39-1.32-.76-2.06-.94-1.42-.37-2.94-.2-4.32.27-.99.35-1.9.93-2.58,1.73-1.06,1.24-1.6,2.86-1.77,4.47-1.11-.24-2.24-.58-3.38-.38-1.37.24-2.68.89-3.68,1.85C.6,17.9.06,19.32,0,20.72c-.02.79.29,1.68,1.02,2.07.67.37,1.47.32,2.21.32,1.99.03,3.96-.44,5.95-.31,2.17.16,4.36.16,6.54.15,1.29-.03,2.57.13,3.86.15Zm-7.57-.99c-2.08.01-4.18-.09-6.25.18-1.17.16-2.35.18-3.54.16.99-.65,1.98-1.32,2.85-2.13-1.05.64-2.01,1.4-3,2.11-.58-.02-1.18-.37-1.31-.97-.17-.81.05-1.67.37-2.42.7-1.44,2.13-2.39,3.61-2.9,1.1-.42,2.28-.2,3.39.05.42.07,1.1.23,1.21-.35.26-1.12.41-2.31,1.06-3.3,1.55-2.71,5.37-3.53,8.05-2.11.5.25.91.66,1.45.84.41-.63.42-1.41.54-2.12.27-1.66.69-3.37,1.71-4.74,1.4-1.95,3.73-3.07,6.07-3.39,2.87-.37,5.79.48,8.23,1.97,1.89,1.15,3.23,3.03,4.02,5.08.67,1.75,1.09,3.67.81,5.55-.03.43-.2.91.04,1.31.12.27.38.47.68.48,1.51.15,3.08.15,4.5.74,1.04.46,1.95,1.37,2.22,2.5.22.98.04,2-.22,2.96-.12.36-.21.78-.49,1.05-.48.15-.99.1-1.48.11-2.08.06-4.16.11-6.24.1-2.18.13-4.36-.04-6.54,0-3.57-.08-7.14-.22-10.71-.25-1.76-.03-3.52-.05-5.28-.21-1.91-.16-3.82-.18-5.73-.28Z" style="fill:#fff;"/><path d="m41.43,21.44c.74-.45,1.62-.69,2.28-1.28-.52.14-1.02.34-1.53.51-.79-.07-1.69.25-2.17.91.41-.14.81-.32,1.21-.49.05.09.15.27.2.36Z" style="fill:#fff;"/><path d="m23.63,13.85c1.3.35,2.69.14,3.97.59,0,1.31-.28,2.61-.21,3.93.06.75-.3,1.44-.43,2.17.07.22.23.5.51.48,1.99.1,3.98-.17,5.97-.14.52-.07,1.41.13,1.51-.6.06-.84-.05-1.69-.05-2.53-.01-1.06-.26-2.12-.06-3.18.76-.15,1.54-.17,2.31-.32.39-.04.5-.54.35-.85-.6-1.48-1.5-2.81-2.52-4.05-1.04-1.25-1.93-2.62-2.9-3.93-.25-.38-.76-.3-1.11-.12-.73.37-1.31.97-1.92,1.51-2.14,1.95-3.9,4.31-6.22,6.07.15.39.35.86.82.96Z" style="fill:#fff;"/><path d="m24.45,20.29c-.76.06-1.41.51-2.03.93.06.05.18.17.25.22.59-.39,1.23-.7,1.78-1.15Z" style="fill:#fff;"/><path d="m22.98,22.58c.69-.44,1.48-.7,2.19-1.12-.83.1-1.59.46-2.33.83.03.07.11.22.14.29Z" style="fill:#fff;"/><path d="m12.88,21.53c1.01-.4,2.06-.68,3.02-1.2-1.09.16-2.12.58-3.18.89.04.08.12.24.16.31Z" style="fill:#fff;"/><path d="m10.97,21.06c.05.07.16.2.22.27.92-.42,1.77-.97,2.59-1.55-1.01.23-1.96.69-2.81,1.28Z" style="fill:#fff;"/><path d="m9.08,21.54c1.08-.36,1.99-1.09,2.94-1.7-1.06.39-2.11.91-2.94,1.7Z" style="fill:#fff;"/><path d="m6.3,21.68c.49-.06.93-.29,1.3-.59.67-.53,1.39-1,2.02-1.58-1.23.48-2.44,1.16-3.32,2.17Z" style="fill:#fff;"/><path d="m5,21.43c.49.13.91-.19,1.28-.46.48-.37.96-.75,1.41-1.18-1.01.32-1.88.96-2.68,1.64Z" style="fill:#fff;"/></g></svg>