<?xml version="1.0" encoding="UTF-8"?><svg id="_レイヤー_2" xmlns="http://www.w3.org/2000/svg" viewBox="0 0 68.63 146.2"><g id="main"><path d="m13.67,106.28c-1.68-1.86-3.79-3.64-6.43-3.74-2.48-.01-5.21,1.07-6.4,3.39-1.08,1.9-1.03,4.27-.36,6.31,1.38,3.92,4.21,7.34,7.92,9.24,2.94,1.58,5.99,3.73,9.5,3.28.99-1.06,1.57-2.41,2.25-3.66,2.43-5.1,5.24-10.23,5.74-15.96.28-2.5.18-5.6-2.1-7.2-1.61-1.27-3.92-1.01-5.5.15-2.65,1.9-4.03,5.08-4.61,8.19Zm7.5-7.21c2.19-.04,3.29,2.31,3.02,4.22-.35,7.05-4.13,13.26-7.39,19.31-1.56-.31-3.05-.83-4.5-1.48-1.85-.87-4.08-1.03-5.58-2.55-2.63-2.45-5.03-5.74-4.89-9.5.15-3.34,4.28-5.27,7.19-4,2.75,1.11,3.95,4.01,5.86,6.06.97-2.44.41-5.23,1.6-7.6.94-1.96,2.46-3.96,4.7-4.46Z" style="fill:#fff;"/><path d="m30.56,23.69c-.68,1.81.28,3.67,1.33,5.11.76,1.03,1.21,2.43,2.42,3.01,1.56-.32,3.02-.99,4.58-1.33.88-.17,1.67-.58,2.39-1.11-1.81,5.91-2.99,12.01-4.55,17.99-.29,1.59-1.14,3.49.1,4.89,1.49,1.5,3.08,2.88,4.58,4.36,5.12-9.66,13.53-16.91,19.84-25.73,1.83-2.16,1.11-5.44-.38-7.58-1.06-2.05-3.52-2.47-5.49-3.19,1.05-2.49,1.53-5.18,2.7-7.62.73-1.83,1.76-3.57,2.12-5.53-.32-1.51-1.08-2.89-1.87-4.22-.74-1.41-2.39-1.94-3.85-2.16-3.12-.37-6.29.07-9.42-.32-2.22-.15-4.59-.61-6.72.27-1.51,4.18-2.51,8.56-3.7,12.85-1.22,3.49-2.88,6.81-4.07,10.32Zm3.85,6.06c-.44-.59-.86-1.18-1.29-1.76,3.02-.67,6.07-1.22,9.11-1.88-.24.71-.47,1.43-.71,2.14-2.47-.22-4.82.68-7.1,1.5Zm5.46-26.88c2.28.14,4.55.51,6.84.68,2.95.14,5.91-.1,8.86.17-1.6,3.62-3.56,7.07-4.98,10.75-.58,1.69-2.18,3.57-1.05,5.35.56,1.13,1.86,1.51,2.97,1.89,1.89.58,3.72,1.33,5.56,2.05-6.55,8.06-13.07,16.13-19.19,24.52,1.35-6.39,2.48-12.83,4.12-19.15.37-1.76,1.43-3.44,1.2-5.29-3.93-.38-7.83.95-11.72,1.39.83-3.88,2.51-7.52,3.72-11.29,1.18-3.71,2.44-7.39,3.68-11.09Z" style="fill:#fff;"/><path d="m66.39,130.28c-.56.35-.44,1.08-.41,1.63.14,1.55.28,3.1.39,4.65.06.37,0,.92.42,1.12.76.62,1.93-.24,1.84-1.15-.04-1.82-.33-3.64-.6-5.45-.04-.78-1.01-1.33-1.64-.81Z" style="fill:#fff;"/><path d="m61.42,146.19c.57.08,1.01-.39,1.41-.71,1.76-1.71,3.61-3.55,4.24-6,.23-.86-1.01-1.57-1.62-.94-.65.72-.94,1.67-1.52,2.44-.93,1.35-2.39,2.22-3.29,3.59-.42.61.02,1.61.79,1.61Z" style="fill:#fff;"/><path d="m64.06,117.78c-.06-.73-.93-1.17-1.54-.72-.92.63-.48,1.86-.17,2.71.55,1.37.94,2.9,1.96,4,.71.69,2.06-.08,1.71-1.04-.59-1.68-1.6-3.19-1.95-4.96Z" style="fill:#fff;"/><path d="m60.18,105.46c-.72.45-.46,1.46-.44,2.17.24,1.6.31,3.34,1.12,4.8.48.92,2.07.58,2.01-.5-.4-1.82-.88-3.63-1.06-5.48.03-.83-.9-1.56-1.62-.99Z" style="fill:#fff;"/><path d="m57.74,96.15c-.38-.61-.94-1.4-1.76-1.16-.66.15-.95,1-.54,1.53.85,1.47,1.57,3.02,2.44,4.48.28.5.95,1.06,1.55.72.72-.27.75-1.2.42-1.79-.65-1.28-1.39-2.52-2.11-3.77Z" style="fill:#fff;"/><path d="m51.71,84.15c-.25-.5-.92-.54-1.37-.32-.58.36-.58,1.1-.31,1.65.78,1.76,1.71,3.5,3.02,4.94.45.61,1.56.66,1.91-.09.39-.86-.39-1.6-.84-2.26-.99-1.18-1.6-2.61-2.4-3.92Z" style="fill:#fff;"/><path d="m48.8,72.79c.1-.74-.83-1.08-1.41-.81-.93.46-.82,1.63-.75,2.5.18,1.72.3,3.56,1.19,5.1.54.98,2.36.37,1.99-.79-.6-1.95-1.09-3.94-1.02-6.01Z" style="fill:#fff;"/><path d="m47.4,60.8c-.82.7-.91,1.84-1.13,2.82-.23,1.52-.54,3.05-.44,4.6.06,1.2,1.96,1.27,2.16.11.34-2.16.21-4.45,1.07-6.52.47-.94-.99-1.74-1.67-1.02Z" style="fill:#fff;"/></g></svg>