<?xml version="1.0" encoding="UTF-8"?><svg id="_レイヤー_2" xmlns="http://www.w3.org/2000/svg" viewBox="0 0 48.3 44.97"><g id="main"><path d="m33.55,1.64c-3.07,1.41-6.69,2.54-8.41,5.69-1.94-2.58-4.42-4.74-7.29-6.19C15.34-.21,12.24-.41,9.64.8c-1.91.97-4.02,1.81-5.23,3.68C2.35,7.31.01,10.37,0,14.03c-.08,5.74,2.4,11.31,5.93,15.73,4.01,4.51,8.31,8.83,13.13,12.48,1.95,1.33,4.11,3.1,6.63,2.66,2.83-.72,5.5-2.2,7.49-4.35,2.07-2.51,4.07-5.08,5.64-7.93,4.05-6.61,8.82-13.36,9.41-21.32.44-4.25-1.71-8.8-5.69-10.57-2.92-1.41-6.23-.34-9,.9Zm-5.6,4.79c.99-.96,2.2-1.62,3.36-2.35-1.7,2.21-3.12,4.62-4,7.29-.29-.62-.57-1.23-.83-1.85.36-1.08.59-2.29,1.47-3.09Zm-3.13,35.76c-2.92-.65-5.28-2.65-7.59-4.42-3.27-2.58-6.27-5.47-9.25-8.34C3.99,25.38,1.02,19.82,1.37,14.02c.1-2.31,1.46-4.26,2.54-6.22-1.04,7.65,2.02,15.58,7.53,20.9,3.51,3.34,7.28,6.5,11.67,8.62,2.39,1.52,5.28,1.57,7.93,2.31-1.85,1.26-3.92,2.59-6.22,2.56ZM46.28,7.27c.85,3.1.09,6.37-1.02,9.31-1.65,4.08-4.01,7.84-6.43,11.51-1.94,2.89-3.46,6.04-5.49,8.87-.36.44-.77,1.02-1.38.98-2.76-.49-5.6-.94-8.09-2.32-4.05-2.04-7.4-5.18-10.56-8.37-3.36-3.37-5.87-7.64-6.81-12.31-.45-2.35-.79-4.84-.06-7.18.88-3.1,3.92-5.42,7.14-5.52,2.26.05,4.36,1.13,6.18,2.4,3.05,2.11,5.25,5.32,6.47,8.8.38,1.13.9,2.21,1.66,3.14,1.09-2.12,1.08-4.6,2.12-6.74,1.6-3.43,4.41-6.56,8.12-7.67,3.53-.9,7.24,1.7,8.16,5.09Z" style="fill:#fff;"/><path d="m19.58,29.62c1.29-1.13,3.28-2.15,3.32-4.08-.18.25-.54.74-.73.98-1.02.89-1.95,1.9-2.59,3.1Z" style="fill:#fff;"/><path d="m16.94,27.68c1.26-1.6,3.02-2.93,3.56-4.99-1.99.85-3.25,2.9-3.56,4.99Z" style="fill:#fff;"/><path d="m15.45,25.62c1.55-1.43,2.76-3.22,3.69-5.11-2.35.57-3.63,2.84-3.69,5.11Z" style="fill:#fff;"/><path d="m14.35,18.83c-.53,1.36-1.02,2.74-1.46,4.13,1.5-.94,2.65-2.35,3.22-4.03l-1.76-.1Z" style="fill:#fff;"/></g></svg>