<?xml version="1.0" encoding="UTF-8"?><svg id="_レイヤー_2" xmlns="http://www.w3.org/2000/svg" viewBox="0 0 93.61 73.99"><g id="main"><path d="m86.17,10.81c-1.84-2.91-5.13-4.31-7.86-6.2-3.59-2.43-7.95-3.25-12.15-3.99-5.61-1.02-11.31-.5-16.96-.39C37.73-.04,26.42,2.71,15.73,6.68c-4.86,1.82-9.72,4.65-12.26,9.37C.21,22,.29,29.01,0,35.6c.14,7.42.59,15.09,3.59,21.99,1.81,4.11,6.02,6.6,10.35,7.28,8.1,1.61,15.89-2.36,23.97-2.07,1.84,3.29,2.93,7.13,5.76,9.81,1.13,1.02,2.97,2.02,4.38.88,2.77-2.07,3.93-5.49,4.88-8.67,6.94,2.02,14.17.7,21.22.27,4.08-.38,8.74-.54,11.73-3.75,4.43-4.68,5.43-11.37,6.92-17.41,1.75-7.11.36-14.42-1.07-21.45-.86-4.27-3.25-8.01-5.54-11.65Zm3.54,31.51c-1.04,5.02-1.82,10.24-4.16,14.85-1.7,3.25-5.43,4.52-8.87,4.75-5.76.46-11.51,1.14-17.28.95-2.97-.05-5.79-1.79-8.78-1.05-1.14,2.99-1.77,6.27-4,8.72-3.63-2.63-4.16-7.45-7.1-10.58-3.74-1.82-8.13-.91-12.1-.36-5.42,1.02-11.31,2.13-16.52-.39-2.77-1.02-4.34-3.72-5.26-6.36-2.2-6.35-2.65-13.12-2.7-19.77.32-5.76.18-12.01,3.59-16.95,2.7-3.59,6.99-5.47,11.08-7.02,10.74-3.86,22.08-6.42,33.53-6.35,3.27.05,6.4,1.09,9.62,1.61,5.65.95,11.51,2.04,16.32,5.33,2.13,1.45,4.67,2.48,6.1,4.72,1.98,3.04,4.16,6.08,5,9.67,1.32,5.97,2.77,12.12,1.52,18.23Z" style="fill:#fff;"/><path d="m55.38,16.81c-3.07,1.61-4.77,4.84-6.06,7.92-1.79-3.2-4.27-6.33-7.83-7.61-3.16-1.16-6.76-.05-9.19,2.14-2.82,2.54-5.02,6.1-5.06,9.99.07,3.93,1.57,7.81,4.13,10.83,3.68,4.59,9.01,7.49,14.35,9.78.46.86.93,1.75,1.52,2.54,3.52-1.89,6.29-4.9,8.9-7.85,3.41-3.77,5.2-8.62,7.38-13.12,1.61-3.77,3.45-8.26,1.56-12.24-1.75-3.52-6.49-3.95-9.71-2.38Z" style="fill:#fff;"/></g></svg>