<?xml version="1.0" encoding="UTF-8"?><svg id="_レイヤー_2" xmlns="http://www.w3.org/2000/svg" viewBox="0 0 26.38 27.87"><g id="main"><path d="m19.78.57c-2.83,1.14-4.54,3.83-5.79,6.47-1.09-2.22-2.29-4.59-4.45-5.94C7.62-.16,5.02.23,3.19,1.48,1.57,2.65.74,4.61.3,6.5c-1.07,4.85.79,9.86,3.69,13.73,2.63,3.36,6.01,6.28,10.12,7.64,5.2-4.26,8.87-10.19,11.13-16.49,1.11-3.03,1.73-6.56.29-9.59-1.06-2.1-3.88-2.15-5.76-1.23Zm2.75,11.77c-2.37,5.03-5.87,9.51-9.96,13.26-3.66-2.98-7.21-6.42-8.95-10.92-1.07-2.89-1.62-6.19-.4-9.12.84-1.81,3.13-3.32,5.09-2.3,1.65.9,2.56,2.68,3.34,4.3,1.06,2.1.98,4.74,2.87,6.36,1.29-2.34,1.18-5.18,2.64-7.44,1.14-1.85,2.8-3.63,5-4.13.84-.25,1.83.3,2.01,1.17.79,3.04-.39,6.11-1.63,8.83Z" style="fill:#fff;"/></g></svg>