<?xml version="1.0" encoding="UTF-8"?><svg id="_レイヤー_2" xmlns="http://www.w3.org/2000/svg" viewBox="0 0 26 27.72"><g id="main"><path d="m13.67,9.18c-1.68-1.86-3.79-3.64-6.43-3.74-2.48-.01-5.21,1.07-6.4,3.39C-.24,10.73-.19,13.1.48,15.14c1.38,3.92,4.21,7.34,7.92,9.24,2.94,1.58,5.99,3.73,9.5,3.28.99-1.06,1.57-2.41,2.25-3.66,2.43-5.1,5.24-10.23,5.74-15.96.28-2.5.18-5.6-2.1-7.2-1.61-1.27-3.92-1.01-5.5.15-2.65,1.9-4.03,5.08-4.61,8.19Zm7.5-7.21c2.19-.04,3.29,2.31,3.02,4.22-.35,7.05-4.13,13.26-7.39,19.31-1.56-.31-3.05-.83-4.5-1.48-1.85-.87-4.08-1.03-5.58-2.55-2.63-2.45-5.03-5.74-4.89-9.5.15-3.34,4.28-5.27,7.19-4,2.75,1.11,3.95,4.01,5.86,6.06.97-2.44.41-5.23,1.6-7.6.94-1.96,2.46-3.96,4.7-4.46Z" style="fill:#fff;"/></g></svg>