<?xml version="1.0" encoding="UTF-8"?><svg id="_レイヤー_2" xmlns="http://www.w3.org/2000/svg" viewBox="0 0 188.39 215.37"><g id="main"><path d="m184.76,31.07c-1.43,1.54-2.12,3.57-3.2,5.34-1.23,2.26-3.01,4.19-4.15,6.48-.73,1.72,1.45,3.63,3.01,2.62,1.72-1.27,2.8-3.2,4.05-4.9,1.5-2.33,3.18-4.67,3.88-7.39.44-1.89-2.14-3.47-3.59-2.16Z" style="fill:#fff;"/><path d="m173.49,52.63c-1.58,1.02-1.95,3.09-2.57,4.74-.69,2.7-1.79,5.48-1.39,8.31.42,2.04,3.88,2.2,4.11-.04.71-3.53,1.93-6.9,2.91-10.36.81-1.76-1.45-3.8-3.07-2.66Z" style="fill:#fff;"/><path d="m170.41,99.82c-1.22.81-1.14,2.49-1.2,3.8.02,3.68.04,7.37.02,11.07.04,1.5-.08,3.57,1.62,4.26,1.52.52,2.99-.77,2.91-2.3.12-5.01.6-10.05.17-15.04-.1-1.7-2.1-2.7-3.53-1.79Z" style="fill:#fff;"/><path d="m166.34,139.15c1.23,1.12,3.09.15,3.65-1.2,1.49-2.95,2.37-6.23,2.8-9.49.44-1.76-1.56-3.66-3.18-2.57-2.16,1.79-1.76,5.15-2.8,7.6-.31,1.81-2.28,4.11-.46,5.65Z" style="fill:#fff;"/><path d="m167.9,78.09c-.14,2.99-.14,5.96-.02,8.95.1,1.37.21,3.07,1.6,3.82,1.54.52,3.38-.69,3.01-2.39-.14-4.15.29-8.29.15-12.42.04-1.72-2.2-2.64-3.49-1.66-1.12.87-1.1,2.43-1.25,3.7Z" style="fill:#fff;"/><path d="m159.99,148.52c-1.58,1.66-2.58,3.76-4.2,5.38-1.18,1.27-2.58,2.28-3.66,3.63-1.2,1.77,1.27,4.03,2.99,2.87,3.47-2.22,6.56-5.36,8.27-9.14,1.14-1.99-1.79-4.42-3.39-2.74Z" style="fill:#fff;"/><path d="m141.38,167.96c-2.74,1.7-5.81,2.68-8.81,3.78-2.16.75-1.29,4.38.98,4.07,3.55-.44,6.98-1.79,10.03-3.65,1.31-.75,2.57-2.62,1.37-4.01-.85-1.29-2.51-.91-3.57-.19Z" style="fill:#fff;"/><path d="m113.24,180.77c-2.99.62-6.15.31-9.06,1.22-1.85.71-1.64,3.82.39,4.07,4.15.04,8.35-.19,12.42-1.06,1.49-.17,2.93-1.79,2.03-3.26-1.16-2.06-3.88-1.12-5.77-.96Z" style="fill:#fff;"/><path d="m94.92,188.56c2.24-.37,1.99-3.72-.06-4.24-3.32-.77-6.83-.04-10.16.37-2.06.37-2.08,3.57-.1,4.13,3.41.31,6.9-.04,10.32-.25Z" style="fill:#fff;"/><path d="m76.29,190.91c2.04-.5,2.06-3.61.17-4.3-2.84-1.1-6.06-1.14-9.03-.62-2.01.46-2.04,3.93.12,4.15,2.91.19,5.82.58,8.74.77Z" style="fill:#fff;"/><path d="m59.69,191.24c2.04-.15,2.51-3.07.83-4.09-2.58-1.58-5.84-2.2-8.85-1.89-1.72.52-1.87,3.38-.1,3.92,2.68.75,5.38,1.56,8.12,2.06Z" style="fill:#fff;"/><path d="m8.75,189.12c-.98.77-.87,2.16-.66,3.26.66,3.18,3.01,5.61,4.09,8.62.66,1.47.95,3.2,2.08,4.42,1.37,1.29,3.86-.12,3.61-1.95-.31-4.98-4.3-8.54-5.69-13.17-.21-1.62-2.31-2.37-3.43-1.18Z" style="fill:#fff;"/><path d="m77.54,17.9c2.55-.23,5.07.31,7.6.15,1.37-.87,1.52-3.09,0-3.9-4.55-2.18-9.91.17-14.46-1.93-1.06-.25-2.28-1.27-3.32-.62-1.5.68-1.6,2.84-.41,3.86,2.74,2.82,6.98,2.57,10.59,2.43Z" style="fill:#fff;"/><path d="m49.9,215.37c4.01.12,7.56-2.14,11.19-3.57,1.77-.93,4.24-1.49,4.92-3.65-.02-2.16-2.43-2.91-4.13-1.95-4.05,1.52-7.75,3.92-12.02,4.9-2.53.06-2.41,4.15.04,4.26Z" style="fill:#fff;"/><path d="m53.8,6.35c1.12.35,2.57,1.29,3.55.17,1.29-1.04.73-3.16-.69-3.78C52.27.16,46.72-.71,41.82.62c-1.35.48-2.7,1.64-2.64,3.18-.08,1.54,1.72,2.78,3.09,1.97,3.72-1.52,7.95-1.04,11.53.58Z" style="fill:#fff;"/><path d="m27.92,208.85c3.8,1.66,7.46,4.3,11.75,4.28,2.08.08,3.61-2.66,1.91-4.13-2.53-.96-5.38-1.12-7.77-2.51-2.01-.68-4.24-2.55-6.36-1.43-1.37.87-1.1,3.26.48,3.78Z" style="fill:#fff;"/><path d="m35.88,12.15c1.18-.87,3.51-1.39,2.91-3.36-.54-2.2-3.55-2.24-5.03-.95-3.34,2.31-6.09,5.38-8.66,8.49-1.08,1.5-2.49,3.01-2.68,4.94.19,2.2,3.26,2.57,4.42.93,2.84-3.47,5.27-7.46,9.05-10.05Z" style="fill:#fff;"/><path d="m25.72,152.26c1-2.6,1.39-5.4,2.26-8.04.81-3.12,2.2-6.08,2.95-9.22.6-1.74-1.6-3.66-3.16-2.58-.77.31-.95,1.16-1.27,1.83-1.68,4.26-3.2,8.56-4.49,12.96-.39,1.6-.89,3.39-.15,4.98.54,1.62,3.34,1.76,3.88.08Z" style="fill:#fff;"/><path d="m25.83,120.4c.83,1.81,3.72,1.37,4.05-.56.66-2.72.64-5.75-.56-8.31-.77-1.54-2.53-3.09-4.36-2.45-.75.31-1.27.91-1.52,1.74.5,1.7,2.22,2.95,2.08,4.86.12,1.56-.17,3.2.31,4.73Z" style="fill:#fff;"/><path d="m21.9,161.98c.41-2.18-2.68-3.3-4.03-1.64-3.92,3.24-6.06,8.06-7.73,12.75-.73,2.22-1.6,4.57-1.14,6.94.25,1.52,2.2,2.47,3.49,1.52.77-.46.96-1.41,1.18-2.22,1.02-4.49,2.24-9.08,4.9-12.92,1-1.54,2.64-2.68,3.34-4.44Z" style="fill:#fff;"/><path d="m17.69,98.71c1.7,2.31,5.11-.44,3.65-2.72-2.08-3.72-4.76-7.14-7.52-10.38-1.29-1.37-3.51-3.59-5.3-1.68-1.35,1.54.29,3.18,1.37,4.28,3.09,3.12,4.96,7.19,7.81,10.49Z" style="fill:#fff;"/><path d="m10.94,40.75c.93-1.99,2.87-3.22,4.03-5.07.46-2.57-3.22-3.49-4.65-1.66-3.32,3.32-5.94,7.85-5.82,12.65-.04,2.08,2.85,3.41,4.17,1.56.93-2.43.89-5.19,2.28-7.48Z" style="fill:#fff;"/><path d="m1.51,59.38c-.96.39-1.6,1.39-1.5,2.45.27,3.36,2.24,6.33,2.56,9.7.29,1.66.1,3.51.96,5.03,1.14,1.58,3.8.75,3.97-1.14.77-5.21-1.89-9.95-3.36-14.77-.27-1.16-1.56-1.68-2.64-1.27Z" style="fill:#fff;"/></g></svg>