<?xml version="1.0" encoding="UTF-8"?><svg id="_レイヤー_2" xmlns="http://www.w3.org/2000/svg" viewBox="0 0 74.47 178.56"><g id="main"><path d="m46.01,174.29l-1.83,2.33-4,.11-4,.49-3.98-.6-3.91-.97-4.01.06-3.79-1.13-2.19-2.3-.13-4.25-.88-4.15-.89-4.16.09-4.26-.49-4.2-1.26-4.14.88-4.32-.83-4.19.38-4.27-1.37-4.15.33-4.26-.5-4.22.39-4.26-.35-4.23-.77-4.22.6-4.27-1.02-4.22,1.02-4.28-1.07-4.23-.29-4.25.54-4.26-.89-4.24.68-4.25-.79-4.24.25-4.24.49-4.24-.64-4.24.29-4.24.47-4.24.51-4.23-.48-4.23-.18-4.24.47-4.22.4-4.22-.53-4.25-.34-4.24,3.14-2.68,4.01-.36,4.02-.55,4.04-.06,4.04.14,4.02.61,4.08-.67,4.04.33,4.02.53,4.04.19,3.99.69,4.08.05,3.93,1,3.95.88,3.6,1.91,1.71,2.93-.28,4.2-.76,4.14-.84,4.13.38,4.33-.78,4.15-1.04,4.1-1.59,4.01.42,4.33-1.73,3.98-.29,4.23-1.06,4.1.48,4.37-1.85,3.97-.52,4.2-.11,4.28-1.77,3.98.03,4.31-.23,4.26-.59,4.19-2.01,3.92.3,4.35-.85,4.14-1.7,3.98.03,4.3-.95,4.12-.61,4.18-1.69,3.97.19,4.34-.54,4.2-1.84,3.95-.58,4.18-1.47,4.01-.46,4.2.14,4.32-2.2,3.86-.75,4.12Z" style="fill:none; stroke:#fff; stroke-miterlimit:10; stroke-width:2.64px;"/><path d="m35.64,159.31l-1.83,2.33-4,.11-4,.49-3.98-.6-3.91-.97-4.01.06-3.79-1.13-2.19-2.3-.13-4.25-.88-4.15-.89-4.16.09-4.26-.49-4.2-1.26-4.14.88-4.32-.83-4.19.38-4.27-1.37-4.15.33-4.26-.5-4.22.39-4.26-.35-4.23-.77-4.22.6-4.27-1.02-4.22,1.02-4.28-1.07-4.23-.29-4.25.54-4.26-.89-4.24.68-4.25-.79-4.24.25-4.24.49-4.24-.64-4.24.29-4.24.47-4.24.51-4.23-.48-4.23-.18-4.24.47-4.22.4-4.22-.53-4.25-.34-4.24,3.14-2.68,4.01-.36,4.02-.55,4.04-.06,4.04.14,4.02.61,4.08-.67,4.04.33,4.02.53,4.04.19,3.99.69,4.08.05,3.93,1,3.95.88,3.6,1.91,1.71,2.93-.28,4.2-.76,4.14-.84,4.13.38,4.33-.78,4.15-1.04,4.1-1.59,4.01.42,4.33-1.73,3.98-.29,4.23-1.06,4.1.48,4.37-1.85,3.97-.52,4.2-.11,4.28-1.77,3.98.03,4.31-.23,4.26-.59,4.19-2.01,3.92.3,4.35-.85,4.14-1.7,3.98.03,4.3-.95,4.12-.61,4.18-1.69,3.97.19,4.34-.54,4.2-1.84,3.95-.58,4.18-1.47,4.01-.46,4.2.14,4.32-2.2,3.86-.75,4.12Z" style="fill:none; stroke:#fff; stroke-miterlimit:10; stroke-width:2.64px;"/><path d="m8.04,6.89c.08.17,5.49-2.9,5.56-2.75.22.45-6.73,9.57-6.67,9.7.21.43,20.41-11.32,20.9-10.31.43.87-19.53,15.37-19.18,16.08.6,1.22,28.56-15.92,29.29-14.45.43.88-33.01,20.36-32.89,20.62.19.39,36.44-20.09,37.27-18.39.14.29-37.15,21.53-36.85,22.13.26.53,44.36-23.09,44.84-22.12.51,1.04-45.85,31.13-44.88,33.11.38.77,53.54-28.55,54.39-26.84.18.36-54.35,28.87-53.62,30.35,1.16,2.34,53.1-26.7,53.3-26.3.58,1.18-53.73,34.76-52.76,36.73.27.54,48.33-24.76,48.69-24.03.81,1.64-49,27.11-48.15,28.82.97,1.96,45.52-23.11,45.78-22.59.36.73-46.31,27.19-45.65,28.53.56,1.13,46.01-24.14,46.58-22.98.31.63-49.11,29.45-48.52,30.64.35.71,47.03-24.78,47.65-23.51.79,1.6-44.93,28.56-44.56,29.29,1.01,2.04,43.23-23.05,43.91-21.67.41.82-45.15,26.02-44.9,26.53.67,1.35,42.68-22.09,43.08-21.26.91,1.84-42.2,29.9-41.58,31.15.35.72,39.25-20.14,39.56-19.52.58,1.18-42.11,21.24-41.32,22.83.85,1.73,37.96-19.64,38.32-18.91.24.48-39.75,26.25-39.13,27.5.44.89,36.1-20.46,37.15-18.33.45.91-33.76,18.68-33.47,19.28.55,1.11,34.27-18.61,34.95-17.25.37.74-38.99,26-38.7,26.57.33.68,35.5-19.89,36.45-17.98.52,1.05-32.08,21.03-31.97,21.26.39.8,31.33-17.47,32.13-15.85.38.77-32.09,23.81-31.78,24.45.44.89,31.05-17.06,31.74-15.66.54,1.1-33.13,20.16-33.03,20.35.68,1.37,28.98-14.62,29.1-14.36.1.21-30.02,15.88-29.54,16.86.17.35,29.48-15.25,29.76-14.68.69,1.4-27.59,23.08-27.23,23.8.7,1.43,25.32-13.13,25.57-12.62.54,1.08-23.96,19.85-23.84,20.11.51,1.03,20.29-10.25,20.39-10.06.23.47-23.97,14.51-23.56,15.33.33.66,25.05-13.62,25.55-12.61.13.26-16.82,15.32-16.72,15.52.15.31,16.04-8.42,16.24-8.01.17.35-5.97,8.99-5.81,9.3.13.26,4.47-2.47,4.57-2.26" style="fill:none; stroke:#fff; stroke-linecap:round; stroke-linejoin:round; stroke-width:3.46px;"/><path d="m57.33,10.15c-.13.08,1.67,2.58,1.55,2.65-.4.23-9.39-4.95-9.5-4.88-.35.21,10.07,15.37,9.25,15.85-.73.42-15.06-15.41-15.66-15.06-1.03.6,14.77,22.49,13.54,23.21-.74.43-20.15-27.22-20.37-27.09-.33.19,19.43,29.96,17.98,30.81-.25.14-21.48-30.96-21.99-30.66-.46.27,23.13,37.71,22.29,38.2-.92.54-32.1-39.54-33.85-38.51-.78.46,34.03,54.34,32.3,55.35-.37.21-34.36-55.44-35.87-54.56-2.6,1.52,35.55,59.91,35.11,60.17-1.31.76-43.23-60.1-45.42-58.81-.75.44,42.55,70.59,41.53,71.18C46.03,79.26,7.69,12.36,5.42,13.69c-2.77,1.61,41.42,69.3,40.69,69.73-.94.55-39.12-60.35-40.86-59.34-1.58.92,42.1,68.43,40.48,69.37-.77.45-40.33-60.55-41.78-59.7-.99.58,42.05,68.03,40.29,69.06-1.9,1.11-37.84-53.87-38.72-53.35-2.79,1.63,39.14,62.74,37.25,63.84-1.04.61-37.23-57.49-37.87-57.11-1.83,1.07,37.31,61.37,36.19,62.02-1.86,1.09-34.09-42.41-35.36-41.67-.95.55,33.44,55.43,32.62,55.9-1.52.89-31.54-54.41-33.59-53.22-2.26,1.32,32.48,53.48,31.53,54.04-.49.29-30.51-40.67-31.79-39.92-1.14.66,32.15,48.88,29.44,50.46-1.13.66-26.52-42.26-27.28-41.82-1.4.82,29.41,46.45,27.69,47.45-.72.42-28.84-37.4-29.4-37.08-.78.46,27.69,42.39,25.49,43.68-.97.56-22.34-28.99-22.54-28.87-.76.44,19.14,29.29,17.61,30.18-.38.22-16.06-12.65-16.38-12.47-.49.29,8.81,13.33,8.04,13.78-.29.17-8.01-6.63-8.06-6.6-.46.27,1.91,3.08,1.83,3.13-.02,0-2.6-.56-2.67-.52-.07.04,2.25,3.6,2.14,3.66" style="fill:none; stroke:#fff; stroke-linecap:round; stroke-linejoin:round; stroke-width:3.46px;"/></g></svg>