<?xml version="1.0" encoding="UTF-8"?><svg id="_レイヤー_2" xmlns="http://www.w3.org/2000/svg" viewBox="0 0 96.52 95.26"><g id="main"><path d="m90,9.69c-1-4.49-5.28-7.41-9.53-8.45-6.85-1.93-13.98-1.1-20.94-.85-9.06,1.08-18.15,1.79-27.19,2.91-6.75.89-13.4,2.8-19.44,5.96-2.95,1.52-5.23,3.99-7.29,6.52C1.05,21.63-.28,29.32.05,36.55c.39,6.87.96,13.77,2.66,20.44,2.16,8.47,4.09,17.01,7.06,25.23,1.37,3.41,2.91,7.04,6.06,9.18,3.76,2.62,8.43,3.3,12.86,3.86h15.02c8.62-1.62,17.45-1,26.07-2.55,5.15-.95,10.7-1.43,15.04-4.69,3.88-2.66,5.17-7.43,7.06-11.48,1.77-4.96,4.42-9.78,4.42-15.16.93-9.76-1.41-19.34-1.87-29.04-.37-7.73-2.53-15.2-4.44-22.66ZM9.61,17.54c.52-3.34,3.76-5.11,6.48-6.54,2.82-1.39,5.75-2.95,9.01-2.72,7.68.17,15.14-2.08,22.8-2.14,10.34-.5,20.77-2.89,31.11-1.02,3.16.54,7.04,1.93,7.85,5.48,1.12,4.53,2.24,9.08,3.2,13.65-7.44.93-14.7,2.97-22.14,3.93-7.35,1.25-14.81,1.66-22.18,2.89-7.6,1.22-15.12,2.97-22.82,3.66-4.17.37-8.31.79-12.44,1.54-.64-6.21-1.97-12.52-.87-18.75Zm82.85,48.04c-.68,3.92-4.13,6.44-7.29,8.39-5.65,3.39-12.38,3.8-18.73,4.82-7.77,1.08-15.47,3.11-23.36,3.03-5.34-.17-10.7-.62-15.87-1.93-3.43-.77-5.36-4.01-6.83-6.9-5.11-10.59-7.87-22.16-9.47-33.75,7.35-1.06,14.79-1.31,22.08-2.8,8.12-1.62,16.24-3.45,24.51-4.01,11.13-.83,22.08-2.85,33-5.01.6,6.48.81,13,1.85,19.44,1.02,6.19,1.08,12.54.1,18.73Z" style="fill:#fff;"/><path d="m71.93,24.46c2.62-.48,6.13-.41,7.6-3.09,1.35-2.95.71-6.46-.27-9.41-1.16-2.33-4.05-2.33-6.23-1.83-2.66.48-5.38.81-7.95,1.64-1.1.29-2.14,1.08-2.26,2.3-.5,3.14-.56,6.81,1.56,9.41,1.89,2.24,5.05,1.14,7.54.98Zm4.34-13.69c.64,2.91,2.12,6.08,1.02,9.05-3.2,2.1-7.43,1.47-11.07,1.87-.98-2.31-1.43-4.84-1.31-7.33,3.28-2.35,7.66-2.16,11.36-3.59Z" style="fill:#fff;"/><path d="m51.64,37.11c-2.97.58-5.79,2.03-7.83,4.28-3.66,3.59-4.74,8.89-5.19,13.81-.17,10.55,10.03,19.38,20.37,18.51,10.8-.91,18.36-13.25,15.6-23.45-2.03-9.87-13.54-15.58-22.95-13.15Zm10.51,32.46c-5,1.93-10.7.27-14.93-2.7-5.38-3.86-8.12-11.8-5-17.86,2.28-3.41,5.3-6.69,9.37-7.87,4.49-1.29,9.49-.75,13.56,1.66,3.28,1.64,5.9,4.65,6.62,8.31,2.1,7.44-2.74,15.53-9.62,18.46Z" style="fill:#fff;"/><path d="m18.7,29.03c1.08.77,2.16,1.77,3.63,1.68,5.71.06,11.3-1.85,16.39-4.32-6.79-.68-13.54.73-20.02,2.64Z" style="fill:#fff;"/><path d="m28.47,25.06c3.63-.27,7.31-1.2,10.18-3.51-4.36-.31-8.78-.35-12.98.91-3.05.95-6.38,1.58-8.74,3.9,3.9.29,7.68-1.04,11.53-1.29Z" style="fill:#fff;"/><path d="m20.2,20.72c5.92-.21,12.42-.48,17.18-4.49-6.89-.29-13.81.75-20.33,2.99.93.69,1.81,1.76,3.14,1.5Z" style="fill:#fff;"/></g></svg>