<?xml version="1.0" encoding="UTF-8"?><svg id="_レイヤー_2" xmlns="http://www.w3.org/2000/svg" viewBox="0 0 104.08 60.44"><g id="main"><path d="m12.04,10.48c-2.14.35-4.31.39-6.42.92-1.85.46-3.79.25-5.62.8,0,1.17.79,2.09,1.7,2.73,5.42,4.08,11.27,7.59,16.67,11.7,1.48.94,1.09,2.89,1.23,4.39-.08,4.81.77,9.58,1.38,14.35.62,4.1,1.18,8.22,2.16,12.25.23,1.07.84,2,1.53,2.83.64-.8,1.27-1.62,2.05-2.3,4.34-3.86,9.26-7.1,13.18-11.42,2.56,1.82,4.81,4.05,7.34,5.92.85-.23,1.42-.99,2.02-1.58,4.99-5.64,10.63-10.66,16.16-15.74.09-.23.26-.69.35-.92,2.14-1.78,4.1-3.79,6.35-5.44,4.39-3.22,8.31-7,12.36-10.59,5.67-5.77,12.42-10.33,18.51-15.61.65-.65.77-1.63,1.08-2.45-.82-.16-1.66-.3-2.5-.3-12.06.26-23.98,2.43-35.96,3.53-17.94,1.55-35.9,3.42-53.58,6.95Zm14.15,45.69c.54-3.27,1.16-6.55,1.28-9.88.13-2.94.2-5.87.41-8.81,3.47,2.7,6.94,5.39,10.43,8.05-4.45,3.03-8.31,6.86-12.13,10.63Zm55.08-38.75c-7.35,6.43-14.82,12.74-21.99,19.36-3.09,2.93-6.07,5.97-8.8,9.24-1.04,1.24-2.14,2.45-3.29,3.59-6.09-4.83-12.62-9.09-18.57-14.07,5.94-4.18,12.18-7.95,18.08-12.21,3.57-2.56,7.29-4.95,10.69-7.74.82-.55,1.14-1.52,1.43-2.41-2.17.14-4.2,1.04-6.25,1.73-10.42,3.91-21.12,7.04-31.45,11.21-2.93-2.55-6.28-4.54-9.45-6.79-2.56-1.85-5.18-3.63-7.69-5.55,7.23-2.43,14.87-2.98,22.35-3.97,12.33-1.61,24.7-2.73,37.09-3.57,11.79-.79,23.46-2.79,35.27-3.25-5.88,4.74-11.77,9.45-17.44,14.44Z" style="fill:#fff;"/><path d="m57.94,26.45c2.16,1.75,4.35,3.48,6.76,4.88-1.52-2.35-3.71-4.89-6.76-4.88Z" style="fill:#fff;"/><path d="m53.25,29.71c1.96,2.12,4.3,4.15,7.18,4.85-2-2.1-4.25-4.21-7.18-4.85Z" style="fill:#fff;"/><path d="m57.25,36.08c-2.31-1.11-4.56-2.49-7.15-2.83,1.91,1.8,4.52,2.87,7.15,2.83Z" style="fill:#fff;"/></g></svg>