<?xml version="1.0" encoding="UTF-8"?><svg id="_レイヤー_2" xmlns="http://www.w3.org/2000/svg" viewBox="0 0 125.07 173.52"><g id="main"><path d="m123.49,162.38l-3.06,2.84-4.13,1.31-4.26.29-4.29.05-4.16,1.12-4.27.22-4.29.03h-4.28s-4.19.91-4.19.91l-4.23.62-4.29-.02-4.28.04-4.21.92-4.24.72-4.32-.61-4.27.32-4.26.55-4.27.12-4.28-.04-4.27-.46-4.26.79-2.96-2.52-.52-4.14-.91-4.07-.51-4.13-1.21-4.02-.37-4.15-.58-4.11.37-4.26-.87-4.07-.95-4.06-.5-4.13-.43-4.14-1.62-3.96-.5-4.13-.26-4.17.27-4.24-1.69-3.96.39-4.26-1.01-4.06-.26-4.17-1.77-3.95.5-4.28-.8-4.08-1.2-4.03.41-4.26-1.34-4.02-1.09-4.05-.74-4.1.65-4.3-1.61-3.99-.48-4.15.34-4.26-1.34-4.03-.38-4.16-.71-4.12.35-4.22,1.29-3.79,4.01-1.25,4.3.16,4.05-.99,4.22-.06,4.06-1,4.17-1.45,4.42.96,4.22-1.59,4.34,1.02,4.31-.96,4.26,1.32,4.38-.76,4.18,1.34,4.39-.12,4.08,1.51,2.92,3.29-.57,4.17,1.35,4.06-.76,4.18.39,4.12.52,4.1-.52,4.15.45,4.11-.2,4.14.88,4.1.29,4.12-.45,4.15v4.14s1.06,4.1,1.06,4.1l-.3,4.15.09,4.14.81,4.12-.41,4.15.25,4.13-.64,4.16.59,4.13.99,4.12-.02,4.14.11,4.14-.69,4.16.53,4.14v4.14s-.68,4.12-.68,4.12l.78,4.17,1.33,1.7,4.06.38,3.95-.84,4.01-.24,3.99-.55,4.04.82,4-.43,4.01-.24,4.01.96,4.03-.19,2.75,2.08-.31,4.04-.48,4.02-.07,4.01.2,4.03.46,4.08Z" style="fill:none; stroke:#fff; stroke-miterlimit:10; stroke-width:2.64px;"/><path d="m113.12,147.4l-3.06,2.84-4.13,1.31-4.26.29-4.29.05-4.16,1.12-4.27.22-4.29.03h-4.28s-4.19.91-4.19.91l-4.23.62-4.29-.02-4.28.04-4.21.92-4.24.72-4.32-.61-4.27.32-4.26.55-4.27.12-4.28-.04-4.27-.46-4.26.79-2.96-2.52-.52-4.14-.91-4.07-.51-4.13-1.21-4.02-.37-4.15-.58-4.11.37-4.26-.87-4.07-.95-4.06-.5-4.13-.43-4.14-1.62-3.96-.5-4.13-.26-4.17.27-4.24-1.69-3.96.39-4.26-1.01-4.06-.26-4.17-1.77-3.95.5-4.28-.8-4.08-1.2-4.03.41-4.26-1.34-4.02-1.09-4.05-.74-4.1.65-4.3-1.61-3.99-.48-4.15.34-4.26-1.34-4.03-.38-4.16-.71-4.12.35-4.22,1.29-3.79,4.01-1.25,4.3.16,4.05-.99,4.22-.06,4.06-1,4.17-1.45,4.42.96,4.22-1.59,4.34,1.02,4.31-.96,4.26,1.32,4.38-.76,4.18,1.34,4.39-.12,4.08,1.51,2.92,3.29-.57,4.17,1.35,4.06-.76,4.18.39,4.12.52,4.1-.52,4.15.45,4.11-.2,4.14.88,4.1.29,4.12-.45,4.15v4.14s1.06,4.1,1.06,4.1l-.3,4.15.09,4.14.81,4.12-.41,4.15.25,4.13-.64,4.16.59,4.13.99,4.12-.02,4.14.11,4.14-.69,4.16.53,4.14v4.14s-.68,4.12-.68,4.12l.78,4.17,1.33,1.7,4.06.38,3.95-.84,4.01-.24,3.99-.55,4.04.82,4-.43,4.01-.24,4.01.96,4.03-.19,2.75,2.08-.31,4.04-.48,4.02-.07,4.01.2,4.03.46,4.08Z" style="fill:none; stroke:#fff; stroke-miterlimit:10; stroke-width:2.64px;"/><path d="m6.92,11.43c.11.16,5.68-4.07,5.78-3.92.3.44-5.93,10.78-5.85,10.91.28.42,19.82-14.85,20.48-13.87.57.84-18.38,18.61-17.91,19.31.79,1.17,27.32-20.55,28.27-19.15.57.84-31.12,25.48-30.95,25.73.25.37,34.4-25.65,35.49-24.05.19.28-34.92,27.1-34.53,27.67.34.5,41.6-29.51,42.21-28.6.66.97-41.96,37.59-40.7,39.45.53.78,54.51-39.46,55.68-37.72.25.37-55.46,39.57-54.43,41.09,1.64,2.43,55.62-38.29,55.9-37.87.83,1.22-55.33,46.08-53.94,48.13.39.57,51.98-36.34,52.5-35.57,1.19,1.75-52.57,38.42-51.32,40.25,1.41,2.08,49.84-34.57,50.22-34.02.54.79-50.3,38.45-49.31,39.91.82,1.21,50.62-36.11,51.46-34.87.46.68-53.28,41.46-52.4,42.75.53.77,52.12-37.32,53.05-35.94,1.21,1.78-49.84,40.48-49.29,41.3,1.53,2.26,49.24-35.59,50.27-34.06.63.93-51.04,38.48-50.65,39.05,1.02,1.51,49.31-34.75,49.94-33.83,1.42,2.1-48.27,42.14-47.3,43.57.56.82,47.29-33.07,47.77-32.36.95,1.41-50.4,34.03-49.12,35.92,1.35,2,46.32-32.6,46.88-31.76.39.57-47.74,39.03-46.73,40.53.72,1.06,44.99-34.16,46.7-31.64.79,1.16-43.53,31.36-43.01,32.13.9,1.33,43.88-32.11,44.99-30.48.62.91-48.17,39.69-47.68,40.41.56.83,45.65-34.34,47.24-32,.94,1.39-42.78,34.49-42.57,34.79.68,1,42.54-31.77,43.91-29.75.69,1.02-43.38,37.66-42.81,38.5.78,1.15,43.42-32.06,44.65-30.25,1.02,1.51-45.68,34.96-45.5,35.22,1.23,1.82,42.5-29.29,42.73-28.95.2.3-43.91,30.16-42.96,31.57.31.46,43.11-30.31,43.63-29.56,1.36,2-41.25,37.67-40.56,38.7,1.36,2.01,40.58-28.55,41.07-27.83,1.03,1.52-34.79,32.08-34.54,32.44.96,1.42,33.73-23.24,33.91-22.97.42.62-32.06,24.15-31.32,25.23.65.96,39.19-28.67,40.18-27.22.27.4-27.61,26.13-27.4,26.44.44.65,40.58-28.73,41.16-27.88.75,1.11-28.43,24.77-27.75,25.77.9,1.33,35.95-25.97,36.7-24.86.89,1.31-26.21,23.51-25.52,24.53,1.21,1.78,35.01-25.36,35.77-24.23.68,1.01-21.57,22.43-21.26,22.88.86,1.27,17.38-13.23,18.06-12.23.24.36-4.91,10.08-4.63,10.48.43.64,6.02-4.62,6.27-4.25" style="fill:none; stroke:#fff; stroke-linecap:round; stroke-linejoin:round; stroke-width:3.46px;"/><path d="m107.42,128.84c-.21.16,2.73,2.69,2.35,2.99-.06.05-9.32-4.6-9.46-4.49-.33.26,8.22,10.15,8.06,10.28-.31.25-11-8.29-11.46-7.93-.92.72,11.61,13.18,10.82,13.8-.46.36-21.99-14.15-22.2-13.99-.93.73,14.48,16.82,13.68,17.44-.64.5-17.39-18.31-17.77-18.02-.79.62,15.61,18.87,15.11,19.26-.34.27-19.08-19.57-19.67-19.1-.5.39,16.15,19.05,15.4,19.63" style="fill:none; stroke:#fff; stroke-linecap:round; stroke-linejoin:round; stroke-width:3.46px;"/><path d="m62.24,7.81c-.14.11,3.46,4.14,3.33,4.25-.45.35-11.85-6.06-11.98-5.96-.37.29,14.76,17.03,13.9,17.71-.8.62-19.71-16.85-20.37-16.34-1.07.84,21.36,24.59,20.08,25.59-.79.62-27.22-28.79-27.45-28.61-.35.27,27.56,32.03,26.05,33.21-.26.21-29.52-33.01-30.06-32.58-.48.37,32.68,39.86,31.81,40.55-.96.75-41.5-40.71-43.32-39.28-.8.63,47.01,56.26,45.23,57.65-.38.3-47.06-57.57-48.63-56.34-2.67,2.1,49.5,62.15,49.04,62.51-1.36,1.06-57.03-61.83-59.3-60.05-.77.61,59.25,73.38,58.21,74.2-2.45,1.92-60.09-74.52-62.65-72.51-3.04,2.39,62.6,78.13,61.79,78.76-1.12.88-60.43-72.57-62.51-70.95-1.81,1.42,65.88,80.15,64.02,81.6-.92.72-62.16-73.09-63.9-71.72-1.14.9,66.22,80.22,64.19,81.81-2.36,1.85-59.35-67.28-60.44-66.42-4.32,3.39,84.86,102.14,81.93,104.43-1.76,1.38-80.55-98.54-81.63-97.69-2.72,2.13,78.05,96.05,76.38,97.35-3.3,2.59-70.67-79.26-72.92-77.5-1.26.99,62.83,77.84,61.74,78.69-2.16,1.7-59.49-78.26-62.39-75.98-2.93,2.3,59.3,73.05,58.07,74.02-.73.57-54.84-61.92-56.74-60.42-1.32,1.03,50.9,58.42,47.77,60.88-1.42,1.12-43.64-53.56-44.59-52.82-1.55,1.22,44.94,53.35,43.03,54.85-.87.69-43.2-45.59-43.88-45.06-.79.62,37.53,43.25,35.3,45-1.06.83-30.72-31.66-30.95-31.48-.79.62,27.46,31.71,25.86,32.97-.49.39-23.2-17.67-23.6-17.35-.59.46,16.1,18.6,15.17,19.33-.5.4-15.03-13.45-15.12-13.39-.7.55,8.61,10.7,8.48,10.81-.06.05-7.98-7.42-8.25-7.21-.14.11,6.4,7.68,6.17,7.87" style="fill:none; stroke:#fff; stroke-linecap:round; stroke-linejoin:round; stroke-width:3.46px;"/></g></svg>