<?xml version="1.0" encoding="UTF-8"?><svg id="_レイヤー_2" xmlns="http://www.w3.org/2000/svg" viewBox="0 0 134.82 153.31"><g id="main"><path d="m106.76,109.72c2.06-.2,3.68-1.59,5.24-2.8,3.09,1.98,6.89.95,10.2.19,2.23-.53,4.44-1.63,5.71-3.62,3.03-5.05,5.32-10.56,6.56-16.3,1.54-6.02-2.48-12.24-7.74-14.95-.27-3.37-.83-6.89-3.02-9.59-5.77-7.92-15.14-11.62-23.07-16.86-17.08-11.22-32.46-24.79-46.95-39.16-2.52-3.48-6.84-4.78-10.77-6.05-4.99-1.46-10.15.09-14.98,1.49-6.73,2.33-11.64,7.94-15.29,13.84-2.54,4.45-5.08,8.92-7.07,13.67-2.49,4.94-3.54,10.44-4.59,15.83-1.43,8.51-1.45,17.32.62,25.74,1.36,7.08,3.83,13.98,7.66,20.11,3.22,3.99,7.81,6.61,12.35,8.85,5.1,1.7,10.54,1.46,15.82,1.44,6.89.13,13.78-.58,20.65-.07.06,4.88,2.72,9.71,7.05,12.06-1.97,7.76-2.1,15.8-3.38,23.69-.45,3.77-.94,7.99,1.29,11.32,1.77,2.72,5.19,3.41,8.1,4.08,4.1.86,8.53,1.1,12.49-.44,2.23-.93,3.17-3.42,3.44-5.66.84-6.63,1.83-13.22,2.93-19.8,1.03-6.4,3.08-12.6,3.72-19.05,4.26,1.02,8.57,2.43,13.01,2.03Zm-37.29,38.26c.16-6.98,2.16-13.75,2.91-20.67.5-4.81,2.13-9.54,1.79-14.43-.09-2.41-2.17-3.87-3.62-5.54-1.24-1.36-1.66-3.21-2.24-4.9,8.09.61,15.74,3.65,23.73,4.86-.74,4.45-1.89,8.81-3.03,13.17-1.89,8.22-2.9,16.59-4.56,24.86-.29,1.19-.47,2.84-1.9,3.26-4.27,1.42-8.86.63-13.08-.62Zm44.29-70.78c-.48,4.22-2.39,8.04-3.95,11.94-2.64,6.41-6.88,12.26-12.67,16.17-5.27-1.42-10.71-2.11-15.98-3.6-3.87-1.07-7.82-1.9-11.81-2.32-7.9-.79-15.84-1.75-23.79-1.18-8.3-.12-16.79.69-24.92-1.53-1.87-.36-2.83-2.11-4.12-3.34-1.9-1.85-4.03-3.53-5.4-5.89-.63-1.06-1.22-2.13-1.75-3.22-3.47-6.99-5.24-14.73-6.37-22.42-.9-13.79,1.57-28.06,8.42-40.18,3.02-5.64,7.1-10.86,12.37-14.55,2.86-2.1,6.26-3.1,9.65-3.91.85-.21,1.69-.4,2.53-.6,4.57-1.02,9.14.54,13.31,2.26,2.81,1.13,4.65,3.64,6.72,5.69,12.56,13.51,26.08,26.17,40.98,37.06,5.4,3.97,11.26,7.2,16.76,10.99.15,6.19.75,12.43.02,18.61Zm18.92,6.96c-2.23-.8-4.4-1.79-6.6-2.67.29-2.29.52-4.57.69-6.86,2.62,2.72,4.91,5.83,5.91,9.53Zm-1.31,6.07c-2.18-1.01-4.42-1.91-6.67-2.8.38-1.36.73-2.7,1.07-4.07,2.2.75,4.38,1.51,6.65,2.01-.29,1.62-.66,3.24-1.06,4.85Zm-9.31,3.63c.64-1.41,1.27-2.86,1.86-4.29,2.3.76,4.62,1.46,6.91,2.24-.66,1.78-1.41,3.53-2.22,5.25-2.11-1.18-4.28-2.29-6.55-3.2Zm-3.37,6.02c.77-1.17,1.5-2.36,2.19-3.54,2.23.9,4.52,1.56,6.77,2.29-.85,1.29-1.74,2.55-2.71,3.77-1.97-1.04-4.07-1.91-6.25-2.52Zm-3.65,4.33c.63-.72,1.22-1.43,1.83-2.15,1.62.61,3.32.97,4.99,1.35-2.25.39-4.53.62-6.82.8Z" style="fill:#fff;"/><path d="m56.3,27.56c-1.09-5.93-3.02-11.91-6.85-16.68-2.81-3.5-7.02-6.09-11.61-6.17-1.34-.05-2.67.07-3.94.37-4.65,1.07-8.73,4.25-11.78,7.87-2.04,2.58-4.42,5.29-4.73,8.73,2.86-2.5,4.54-6.02,7.36-8.58,4.2-4.12,10.33-7.59,16.33-5.61,6.42,2.12,9.97,8.53,12.06,14.54-3.02.83-6.17,1.79-8.49,4.01-4.25,3.98-8.2,8.49-10.53,13.88-4.17,8.97-4.33,19.24-2.76,28.85.97,5.88,3.68,11.28,6.74,16.33-3.29,2.88-7.33,5.35-11.87,5.15-4.17-.45-7.42-3.58-9.73-6.85-4.18-6.17-5.78-13.66-6.51-20.97-.76-6.82.13-13.64.71-20.41-2.58.04-2.31,2.97-2.8,4.77-1.84,12.09-1.52,25.06,3.97,36.22,2.31,4.69,5.88,9.22,11.01,10.86,4.71,1.56,9.87,0,13.72-2.87,7.35-5.26,11.87-13.47,15.26-21.65,5.14-13.19,6.75-27.81,4.41-41.79Zm-6.96,19.21c-.74,3.09-4.54,3.98-5.53,6.95-1.41,4.01-.21,8.39-1.39,12.44-1.17-.97-2.52-2.09-2.67-3.73-.37-3.73.02-7.48.54-11.18.25-3.84,1.97-7.43,3.97-10.66.71-1.13,2.44-2.53,3.63-1.24,1.49,2.09,2.07,4.93,1.46,7.43Z" style="fill:#fff;"/><path d="m58.7,73.67c-3.02,5.62-5.47,11.89-10.77,15.82.9-1.87,1.96-3.67,3.08-5.43,2.21-3.39,3.63-7.17,5.3-10.82,2.66-5.99,3.59-12.53,4.69-18.91,1.12-9.18.37-18.57-1.79-27.55-1.27-5.28-2.01-10.91-5.49-15.32,2.15,1.69,3.56,4.07,4.3,6.67,3.91,12.46,7.32,25.61,5.35,38.72-1.02,5.72-2.04,11.58-4.68,16.82Z" style="fill:#fff;"/><path d="m65.91,94.69c1.08-2.5,2.28-5.06,4.5-6.72-.41,2.81-2.08,5.25-4.5,6.72Z" style="fill:#fff;"/><path d="m73.21,91.93c.59-1.15,2.06-1.14,3.1-1.52-1.11,2.3-2.47,4.49-3.96,6.55.12-1.69,0-3.51.86-5.02Z" style="fill:#fff;"/><path d="m75.77,97.86c.45-3.23,2.22-6.2,5.1-7.8-.88,3.04-2.54,5.88-5.1,7.8Z" style="fill:#fff;"/><path d="m81.4,97.94c.07-.87-.11-1.78.19-2.58,1.15-1.64,3.21-2.15,5-2.62-1.64,1.83-3.95,3.01-5.19,5.21Z" style="fill:#fff;"/></g></svg>