<?xml version="1.0" encoding="UTF-8"?><svg id="_レイヤー_2" xmlns="http://www.w3.org/2000/svg" viewBox="0 0 172.44 175.13"><g id="main"><path d="m147.59,170.52l-2.31,2.36-4.01.54-4.05.38-4.06-.24-4.07-.06-4.03-.93-4.06.26-4.09.53-4.03-.47-4.04-.32-4.04-.44-4.09.09-3.69-1.87-2.18-3.54-3.04-2.79-1.69-3.89-2.78-3.01-3.26-2.66-2.52-3.24-2.02-3.59-1.95-3.63-1.96-3.61-3.03-2.87-2.77-3.07-1.89-3.66-1.73-3.75-2.91-2.99-1.18-4.08-2.33-3.35-2.56-3.2-1.8-3.68-3.21-2.78-1.36-4.06-1.96,1.01-.46,4.24-.2,4.25.17,4.26-.38,4.24-.09,4.25.45,4.27-.32,4.25-.53,4.25.36,4.26.07,4.25-.52,4.24-.28,4.24-.05,4.24-.31,4.25.56,4.22-2.21,1.81-4.07.14-4.1.88-4.07-.57-4.12.5-4.02-1.42-4.08-.16-4.09.19-2.39-2.72.61-4.2-1.01-4.11-.67-4.13.99-4.21-.72-4.13-.18-4.16-.65-4.14.31-4.18.55-4.18-.61-4.14.38-4.17-.36-4.16.36-4.17-.42-4.16-.47-4.17.47-4.18-.12-4.17-.9-4.17,1.19-4.18-.52-4.17.65-4.17-1.09-4.17.57-4.16-.25-4.17.6-4.16-.13-4.17-.55-4.18.78-4.16-.82-4.18,1.18-4.14-.88-4.18-.12-4.16.69-4.14-.72-4.18.82-4.12,2.24-3.63,4.18-.09,4.24.23,4.19-.79,4.23.21,4.22.48,4.19.6,4.22-.28,4.22.11,4.14.84,4.12.86,4.25.06,4.22.33,3.09,3.55,1.92,3.61,2.18,3.47,1.86,3.64,1.79,3.68,1.48,3.85,2.67,3.22,1.9,3.63,1.82,3.67,2.19,3.47,1.86,3.65,2.5,3.3,1.76,3.71,1.96,3.6,1.13,4.06,2.24,3.44,2.32,3.38,1.93,3.61,1.88,3.64,2.94,3,.72-.15.7-4.19,1.23-4.15-.78-4.31,1.34-4.16-.11-4.25.65-4.2-.9-4.31,1.41-4.15.07-4.24-.34-4.27,1.29-4.15-.5-4.28-.26-4.25.1-4.23,1.51-4.15-.8-4.27,3-3.58,4.13.55,4.01-1,4.06.09,4.06-.17,4.03.98,4.09-.85,4.08-.09,4,1.25,4.07.02,4,.93,4.08-.06,4.12-.64,3.86,1.68,2.72,2.39-1.54,4.07.56,4.3-1.61,4.08.63,4.32-1.33,4.1.35,4.3-1.11,4.12.16,4.28-1.4,4.08.55,4.34-1.57,4.04-.42,4.2-.29,4.23-1.34,4.08-.37,4.22-1.02,4.13.05,4.29-.54,4.2-1.28,4.09-.83,4.16.22,4.33-1.14,4.1-.75,4.16-.03,4.28-1.25,4.07-.59,4.19-1.48,4.04-.25,4.25.16,4.33-.85,4.14-.71,4.17-1.5,4.01-.27,4.24-.79,4.15-1.68,3.95Z" style="fill:none; stroke:#fff; stroke-miterlimit:10; stroke-width:2.64px;"/><path d="m137.21,155.54l-2.31,2.36-4.01.54-4.05.38-4.06-.24-4.07-.06-4.03-.93-4.06.26-4.09.53-4.03-.47-4.04-.32-4.04-.44-4.09.09-3.69-1.87-2.18-3.54-3.04-2.79-1.69-3.89-2.78-3.01-3.26-2.66-2.52-3.24-2.02-3.59-1.95-3.63-1.96-3.61-3.03-2.87-2.77-3.07-1.89-3.66-1.73-3.75-2.91-2.99-1.18-4.08-2.33-3.35-2.56-3.2-1.8-3.68-3.21-2.78-1.36-4.06-1.96,1.01-.46,4.24-.2,4.25.17,4.26-.38,4.24-.09,4.25.45,4.27-.32,4.25-.53,4.25.36,4.26.07,4.25-.52,4.24-.28,4.24-.05,4.24-.31,4.25.56,4.22-2.21,1.81-4.07.14-4.1.88-4.07-.57-4.12.5-4.02-1.42-4.08-.16-4.09.19-2.39-2.72.61-4.2-1.01-4.11-.67-4.13.99-4.21-.72-4.13-.18-4.16-.65-4.14.31-4.18.55-4.18-.61-4.14.38-4.17-.36-4.16.36-4.17-.42-4.16-.47-4.17.47-4.18-.12-4.17-.9-4.17,1.19-4.18-.52-4.17.65-4.17-1.09-4.17.57-4.16-.25-4.17.6-4.16-.13-4.17-.55-4.18.78-4.16-.82-4.18,1.18-4.14-.88-4.18-.12-4.16.69-4.14-.72-4.18.82-4.12,2.24-3.63,4.18-.09,4.24.23,4.19-.79,4.23.21,4.22.48,4.19.6,4.22-.28,4.22.11,4.14.84,4.12.86,4.25.06,4.22.33,3.09,3.55,1.92,3.61,2.18,3.47,1.86,3.64,1.79,3.68,1.48,3.85,2.67,3.22,1.9,3.63,1.82,3.67,2.19,3.47,1.86,3.65,2.5,3.3,1.76,3.71,1.96,3.6,1.13,4.06,2.24,3.44,2.32,3.38,1.93,3.61,1.88,3.64,2.94,3,.72-.15.7-4.19,1.23-4.15-.78-4.31,1.34-4.16-.11-4.25.65-4.2-.9-4.31,1.41-4.15.07-4.24-.34-4.27,1.29-4.15-.5-4.28-.26-4.25.1-4.23,1.51-4.15-.8-4.27,3-3.58,4.13.55,4.01-1,4.06.09,4.06-.17,4.03.98,4.09-.85,4.08-.09,4,1.25,4.07.02,4,.93,4.08-.06,4.12-.64,3.86,1.68,2.72,2.39-1.54,4.07.56,4.3-1.61,4.08.63,4.32-1.33,4.1.35,4.3-1.11,4.12.16,4.28-1.4,4.08.55,4.34-1.57,4.04-.42,4.2-.29,4.23-1.34,4.08-.37,4.22-1.02,4.13.05,4.29-.54,4.2-1.28,4.09-.83,4.16.22,4.33-1.14,4.1-.75,4.16-.03,4.28-1.25,4.07-.59,4.19-1.48,4.04-.25,4.25.16,4.33-.85,4.14-.71,4.17-1.5,4.01-.27,4.24-.79,4.15-1.68,3.95Z" style="fill:none; stroke:#fff; stroke-miterlimit:10; stroke-width:2.64px;"/><path d="m106.52,10.78c.23.44,8.4-4.79,8.56-4.48.06.11-6.3,7.13-6.21,7.3.26.5,13.17-7.57,13.45-7.04.16.31-15.63,10.54-15.53,10.72s21.3-12.2,21.73-11.37c.23.44-20.49,16.59-20.33,16.9.5.95,30.39-17.2,30.92-16.18.3.57-33.88,19.21-33.49,19.96.26.49,36.87-20.43,37.34-19.53.24.47-39.1,29.92-38.75,30.59.79,1.5,49.99-28.32,50.88-26.62.83,1.58-48.73,34.65-48.42,35.23.54,1.03,48.17-26.05,48.52-25.38.68,1.3-51.39,30.06-51.04,30.72.82,1.56,47.85-25.58,48.08-25.15.64,1.22-49.25,28.57-48.69,29.65,1.02,1.94,50.5-29.61,51.81-27.11.84,1.61-52.07,35.78-51.54,36.79.5.95,49.18-27.64,49.97-26.14.48.91-54.46,32.04-53.25,34.35.29.55,47.58-27.62,48.7-25.48" style="fill:none; stroke:#fff; stroke-linecap:round; stroke-linejoin:round; stroke-width:3.46px;"/><path d="m42.64,87.03c.63,1.2,42.99-23.93,43.58-22.8.36.68-37.7,24.26-37.33,24.97.28.54,38.72-22.49,39.64-20.74.36.7-40.77,25.74-40.43,26.39.78,1.48,39.24-22.65,40.11-20.98.81,1.54-33.07,25.47-32.32,26.9,1.34,2.56,93.66-52.38,95.05-49.72.51.98-91.22,56.06-90.76,56.92.87,1.66,87.13-47.85,88.07-46.07.88,1.68-87.49,49.22-85.55,52.92.69,1.33,85.46-46.84,86.33-45.17,1.22,2.33-82.65,48.21-82.42,48.64,1.4,2.67,79.66-45.44,81.2-42.48.83,1.58-83.36,43.75-82.17,46.03,1.97,3.77,79.66-45.2,81.11-42.43,1.83,3.49-78.96,45-78.31,46.23,1.04,2,78.22-43.39,79.23-41.45,1.15,2.2-77.93,44.09-77.54,44.85,1.19,2.28,71.81-39.27,72.51-37.93,1.51,2.89-66.16,37.03-64.96,39.31,1.19,2.28,66.37-37.63,67.56-35.35.45.87-71.18,37.61-69.8,40.24.45.86,64.66-37.05,65.99-34.52s-61.25,35.84-61,36.32c1.05,2,59.6-31.75,59.83-31.3.65,1.24-60.49,32.56-59.17,35.08,1.55,2.97,58.74-31.92,59.23-30.99.63,1.2-53.53,31.98-53.36,32.29,1.4,2.67,51.71-27.55,51.91-27.16,1.15,2.21-53.69,30.55-52.98,31.91,1.12,2.14,55.59-30.89,56.33-29.47.63,1.2-48.22,32.5-47.32,34.23.61,1.17,41.29-22.26,41.56-21.74.12.22-29.69,23.96-29.15,24.98.2.38,29.29-17.33,30.12-15.75.52.99-27.99,16.56-27.79,16.96.46.89,24.21-13.48,24.54-12.84.22.42-14.63,12.13-14.26,12.83.32.61,16.76-9.77,17.18-8.99.16.31-12.12,9.7-11.94,10.05.16.31,7.93-4.97,8.27-4.33.08.15-1.56,4.32-1.55,4.35.08.15,3.67-2.25,3.81-1.99" style="fill:none; stroke:#fff; stroke-linecap:round; stroke-linejoin:round; stroke-width:3.46px;"/><path d="m8.15,7.45c.08.16,5-2.81,5.08-2.66.23.44-6.25,9.6-6.19,9.73.22.42,19.78-11.6,20.29-10.62.45.85-18.98,15.74-18.62,16.44.63,1.2,27.88-16.41,28.63-14.98.45.86-32.34,21.04-32.21,21.3.2.38,35.66-20.78,36.54-19.11.15.29-36.45,22.31-36.14,22.91.27.52,43.53-23.98,44.03-23.03.54,1.03-45.18,32.24-44.15,34.19.39.75,51.86-29.25,52.73-27.59.18.35-52.76,29.7-52.01,31.15,1.24,2.37,53.69-28.6,53.9-28.2.63,1.2-54.53,36.8-53.48,38.8.32.61,55.27-29.96,55.69-29.14.98,1.87-56.25,32.06-55.22,34.01,1.21,2.3,55.57-29.85,55.89-29.24.46.88-56.7,33.66-55.85,35.29.73,1.4,59.63-33.03,60.39-31.59.42.8-63.2,37.92-62.41,39.43.49.94,64.77-36.02,65.64-34.34,1.15,2.21-63.25,39.19-62.72,40.2,1.52,2.91,65.56-36.8,66.59-34.84.64,1.22-68.04,39.06-67.65,39.81,1.05,2,67.95-37.11,68.59-35.88,1.49,2.85-68.34,44.05-67.33,45.99.62,1.18,71.51-38.71,72.05-37.69,1.1,2.09-75.32,38.29-73.84,41.1,1.53,2.92,71.79-39.12,72.43-37.89.45.86-74.61,44.45-73.43,46.7.35.68,24.93-15.09,25.77-13.48.32.61-22.42,14.01-22.21,14.42.45.85,23.56-13.66,24.11-12.61.29.56-28.24,21.79-28.01,22.22.28.53,26.21-15.63,27-14.13.41.78-22.82,17.28-22.73,17.44.34.64,23.13-13.76,23.81-12.46.32.61-24,20.79-23.74,21.29.39.74,24.63-14.38,25.24-13.21.47.9-26.73,17.89-26.65,18.04.62,1.18,23.38-12.52,23.5-12.29.09.17-24.42,14.07-24.01,14.87.16.3,24.38-13.38,24.64-12.89.63,1.21-22.83,21.64-22.5,22.26.69,1.31,22.57-12.41,22.81-11.94.37.71-13.78,15.44-13.69,15.61.4.76,11.83-6.37,11.91-6.23.11.21-9.25,8.13-9.06,8.49s11.47-6.73,11.76-6.15c.04.08.89,6.82.92,6.88.03.06.24-.23.28-.15" style="fill:none; stroke:#fff; stroke-linecap:round; stroke-linejoin:round; stroke-width:3.46px;"/><path d="m57.66,7.82c-.3.18,4.78,7.15,4.51,7.32-.15.09-8.76-5.38-8.92-5.29-1.63,1,89.39,133.38,84.11,136.63-2.33,1.43-89.85-142-92.04-140.65-4.71,2.9,94.43,141.55,89.14,144.81C128.34,154.41,41.78,4.28,36.12,7.76c-3.8,2.34,94.08,144,90.14,146.42-1.57.96-98.91-147.81-100.29-146.96-2.62,1.61,92.53,144.02,89.73,145.75S22.98,2.15,16.72,6c-2.21,1.36,94.33,146.99,91.54,148.71C104.14,157.25,12.63,6.99,11.86,7.46c-4.59,2.83,95.36,143.52,90.28,146.65C99.3,155.86,11.49,2.8,7.39,5.33.76,9.4,103.38,150.37,98.52,153.37,92.19,157.27,6.71,8.12,4.48,9.49c-3.55,2.18,92.84,143.07,89.39,145.2C89.96,157.09,5.35,15.14,4,15.97,0,18.43,88.97,148.75,86.63,150.19,81.33,153.46,10.82,26.67,6.63,29.25c-3.4,2.09,68.84,104.19,65.43,106.29-1.28.79-64.14-106.63-68.04-104.23-.68.42,33.04,49.2,31.04,50.43-1.73,1.06-29.29-40.85-29.62-40.65-1.62,1,28.93,46.18,28.56,46.4-.88.54-27.81-42.2-29.6-41.1-2.49,1.53,30.63,47.99,29.84,48.48-.87.53-27.66-38.05-27.89-37.91-2.34,1.44,27.63,44.11,27.29,44.32-1.72,1.06-28.32-41.3-29.38-40.65-1.96,1.21,32.94,50.59,31.64,51.39-.86.53-28.44-32.97-29.68-32.2s27.51,43.5,26.98,43.83c-.23.14-27.04-29.8-28.08-29.17-.55.34,31.79,46.55,29.52,47.95-1.6.98-29.91-45.93-30.55-45.54-1.45.9,29.92,46.25,28.87,46.9-.97.6-26.66-37.89-28.3-36.88-1.34.82,29.94,44.77,28.21,45.83-.97.6-28.08-41.61-29.16-40.95-.89.55,25.36,37.05,23.51,38.19-1.23.76-22.45-31.02-22.69-30.88-.7.43,19.28,28.59,18.06,29.34-.88.54-15.5-23.39-16.44-22.81-1.1.68,15.91,25.03,15.55,25.25-.09.06-14.77-11.38-14.93-11.28-.2.12,6.16,9.58,5.97,9.7-.21.13-6.31-4.23-6.54-4.09-.5.31,3.22,4.16,2.74,4.45-.03.02-3.78-1.14-3.93-1.05-.33.21,2.26,3.12,2.01,3.27" style="fill:none; stroke:#fff; stroke-linecap:round; stroke-linejoin:round; stroke-width:3.46px;"/><path d="m154.92,11.18c-.12.08,1.1,1.53.98,1.6-.33.21-8.53-3.1-8.62-3.04-.33.2,9.56,13.82,8.79,14.29-.65.4-14.44-13.34-14.98-13.01-.97.6,14.34,20.7,13.18,21.41-.69.42-19.83-25.15-20.03-25.02-.32.2,19.16,28.04,17.79,28.89-.23.14-21.3-28.92-21.78-28.62-.44.27,23.11,35.74,22.3,36.23-.88.54-32.27-37.42-33.94-36.39-.76.46,34.54,52.36,32.87,53.39-.35.22-34.99-53.46-36.45-52.56-2.52,1.55,36.27,57.94,35.83,58.21-1.24.76-43.1-56.36-45.17-55.08-.72.44,42.56,66.97,41.59,67.56-2.01,1.24-39.79-60.7-41.9-59.4-2.6,1.6,40.61,64.44,39.93,64.86-.88.54-38.86-56.51-40.5-55.51-1.5.92,41.88,64.58,40.34,65.53-.74.46-40.83-58-42.23-57.14-.95.59,42.62,65.44,40.93,66.48-1.88,1.16-39.12-52.99-39.98-52.46-2.75,1.69,40.59,61.76,38.73,62.91-1.04.64-39.2-57.64-39.84-57.25-1.83,1.12,39.38,61.45,38.26,62.14-1.99,1.23-37.43-45.65-38.79-44.81-.99.61,37.14,58.41,36.28,58.94-1.63,1-35.47-58.34-37.66-57-2.39,1.47,36.6,57.2,35.59,57.82-.63.39-35.42-55.7-37.06-54.69-1.29.79,39.13,56.69,36.06,58.58" style="fill:none; stroke:#fff; stroke-linecap:round; stroke-linejoin:round; stroke-width:3.46px;"/></g></svg>