<?xml version="1.0" encoding="UTF-8"?><svg id="_レイヤー_2" xmlns="http://www.w3.org/2000/svg" viewBox="0 0 157.25 141.03"><g id="main"><path d="m78.35,71.78l-2.28,2.78-4.1.97-4.24-.05-4.12.76-4.2.15-4.1,1.09-4.17.54-4.23-.14-4.19.26-4.11,1.19-4.22-.04-4.19.31-4.11.94-3.44-2.47-1.38-3.92-.43-4.18-1.42-3.93-1.71-3.87-.78-4.09-.87-4.07-.14-4.22-1.22-4.01-.75-4.1-.16-4.2-1.5-3.97-.59-4.12v-4.2s1.81-3.23,1.81-3.23l4.04-.81,4.03-1.01,4.21.26,4.06-.83,4.09-.64,4.2.45,4.1-.58,4.06-1.12,4.15.07,4.16.2,4.13-.21,4.12-.53,4.1-.91,4.12.21,3.63,2.66.06,4.13.99,3.93.77,3.98.73,4.01.11,4.07-.24,4.09.3,4.05,1.03,4.02-.94,4.11.8,4.04-.53,4.08.14,4.06.43,4.03Zm69.01,11.78l-1.45,4.06-1.49,4.06-2.48,3.58-1.85,3.88-2.51,3.49-1.87,3.92-2.49,3.52-3.18,2.96-3.02,3.04-2.55,3.55-3.56,2.46-3.49,2.5-3.33,2.82-4.04,1.6-3.89,1.83-4.27.75-3.96,1.62-3.93,1.87-4.2.88-4.19.9-4.33.09-4.15,1.09-4.24.54-4.3-.14-4.19,1.14-4.28.13-4.26-.56-3.49-1.95-.97-3.76-.95-3.78.41-3.93,1.96-3.01,4.14-1.16,4.38-.28,4.08-1.44,3.84-2.1,4.16-1.14,4.17-1.22,3.92-1.85,3.58-2.46,2.96-3.07,3.32-2.56,2.72-3.19,3.12-2.98,1.84-3.85,1.6-3.93,1.27-4.03,1.58-3.92,1.71-3.9.97-4.17.07-4.35,1.87-4,.04-4.33,1.27-4.15.53-4.25.48-4.27,2.09-2.11,4.13,1.33,4.3.18,4.27.43,4.09,1.43,4.32.22,4.3.45,4.12,1.27,3.94,1.9,4.43.08,4.17,1.06,1.22,3.63-1.79,3.79-.48,4.25-1.38,3.95-2.24,3.63-1.16,4.03-1.41,3.94Z" style="fill:none; stroke:#fff; stroke-miterlimit:10; stroke-width:2.64px;"/><path d="m67.98,56.8l-2.28,2.78-4.1.97-4.24-.05-4.12.76-4.2.15-4.1,1.09-4.17.54-4.23-.14-4.19.26-4.11,1.19-4.22-.04-4.19.31-4.11.94-3.44-2.47-1.38-3.92-.43-4.18-1.42-3.93-1.71-3.87-.78-4.09-.87-4.07-.14-4.22-1.22-4.01-.75-4.1-.16-4.2-1.5-3.97-.59-4.12v-4.2s1.81-3.23,1.81-3.23l4.04-.81,4.03-1.01,4.21.26,4.06-.83,4.09-.64,4.2.45,4.1-.58,4.06-1.12,4.15.07,4.16.2,4.13-.21,4.12-.53,4.1-.91,4.12.21,3.63,2.66.06,4.13.99,3.93.77,3.98.73,4.01.11,4.07-.24,4.09.3,4.05,1.03,4.02-.94,4.11.8,4.04-.53,4.08.14,4.06.43,4.03Zm69.01,11.78l-1.45,4.06-1.49,4.06-2.48,3.58-1.85,3.88-2.51,3.49-1.87,3.92-2.49,3.52-3.18,2.96-3.02,3.04-2.55,3.55-3.56,2.46-3.49,2.5-3.33,2.82-4.04,1.6-3.89,1.83-4.27.75-3.96,1.62-3.93,1.87-4.2.88-4.19.9-4.33.09-4.15,1.09-4.24.54-4.3-.14-4.19,1.14-4.28.13-4.26-.56-3.49-1.95-.97-3.76-.95-3.78.41-3.93,1.96-3.01,4.14-1.16,4.38-.28,4.08-1.44,3.84-2.1,4.16-1.14,4.17-1.22,3.92-1.85,3.58-2.46,2.96-3.07,3.32-2.56,2.72-3.19,3.12-2.98,1.84-3.85,1.6-3.93,1.27-4.03,1.58-3.92,1.71-3.9.97-4.17.07-4.35,1.87-4,.04-4.33,1.27-4.15.53-4.25.48-4.27,2.09-2.11,4.13,1.33,4.3.18,4.27.43,4.09,1.43,4.32.22,4.3.45,4.12,1.27,3.94,1.9,4.43.08,4.17,1.06,1.22,3.63-1.79,3.79-.48,4.25-1.38,3.95-2.24,3.63-1.16,4.03-1.41,3.94Z" style="fill:none; stroke:#fff; stroke-miterlimit:10; stroke-width:2.64px;"/><path d="m44.53,113.22c.33.46,9.64-7.5,9.88-7.17.09.12-6.88,9.14-6.74,9.33.46.64,20.57-15.98,21.07-15.3.31.43-22.32,18.65-22.13,18.91.47.64,93.65-72.47,95.77-69.54,1.25,1.72-88.37,69.17-87.49,70.38,1.59,2.19,82.36-63.39,84.06-61.04,1,1.38-83.6,60.59-82.27,62.42.7.96,79.44-60.39,80.73-58.62.53.73-63.68,55.92-62.91,56.98,1.15,1.59,53.65-41.7,54.95-39.9.77,1.06-29.93,31.97-29.65,32.36.35.49,18.09-13.62,18.32-13.3" style="fill:none; stroke:#fff; stroke-linecap:round; stroke-linejoin:round; stroke-width:3.46px;"/><path d="m103.08,38.81c.14.2,1.95-1.98,2.22-1.61.05.07-4.81,9.06-4.71,9.19.23.32,9.49-7.13,9.6-6.97.23.32-8.64,10.65-8.3,11.12.68.94,13.46-10.99,14.04-10.19.39.53-18.09,23.67-17.91,23.92,1.02,1.41,29.6-23.33,30.47-22.13.81,1.11-33.34,26.74-32.87,27.39.98,1.35,36.68-27.94,37.3-27.08s-48.53,43.34-47.47,44.8c.87,1.2,55.24-42.86,56.55-41.06" style="fill:none; stroke:#fff; stroke-linecap:round; stroke-linejoin:round; stroke-width:3.46px;"/><path d="m6.97,11.37c.1.14,3.59-2.8,3.68-2.67.26.35-3.54,9.52-3.47,9.62.26.36,16.24-13.07,16.85-12.23.51.7-14.46,16.95-14.04,17.53.76,1.04,23.46-18.94,24.37-17.69.54.74-26.93,24.09-26.77,24.31.25.34,30.79-24.6,31.86-23.13.18.25-31.08,26.16-30.7,26.68.34.46,38.51-29.26,39.13-28.41.66.9-38.19,37.26-36.95,38.97.52.72,49.5-38.36,50.65-36.78.24.33-50.13,38.6-49.13,39.98,1.59,2.2,49.87-36.78,50.14-36.41.79,1.09-48.41,44.22-47.09,46.04.37.52,45.93-34.41,46.44-33.72,1.1,1.52-45.16,35.97-44,37.56,1.33,1.83,42.75-31.78,43.11-31.3.41.56-34.84,30.35-34.08,31.4.66.9,35.63-27.28,36.3-26.36.27.37-27.02,25.97-26.51,26.67.32.44,26.62-20.51,27.18-19.74.4.54-11.74,16.24-11.56,16.49.58.8,12.08-9.6,12.48-9.06.11.15-5.56,8.74-5.5,8.84.24.34,4.59-3.65,4.74-3.44" style="fill:none; stroke:#fff; stroke-linecap:round; stroke-linejoin:round; stroke-width:3.46px;"/><path d="m58.33,6.19c-.24.2,4.66,4.65,4.21,5.02-.08.06-11.17-6.38-11.33-6.25-.37.31,11.13,12.9,10.95,13.05-.39.33-13.71-11.09-14.28-10.61-1.07.89,15.85,17.06,14.95,17.82-.54.45-26.21-18.02-26.47-17.81-1.5,1.26,29.28,32.32,28,33.39-1.15.96-31.52-34.51-32.19-33.94-1.4,1.17,33.88,38.6,33,39.35-.71.6-43.4-39.51-44.64-38.47-1.05.88,42.47,47.46,40.91,48.78-.87.73-40.97-47.54-41.88-46.77-.46.38,38.66,45.09,38.16,45.51-1.07.9-42.49-44.6-44.54-42.88-.99.83,37.53,43.64,36.98,44.09-.4.34-42.03-46.41-43.36-45.3-.75.63,39.58,46.54,39.26,46.81-1.94,1.63-39.08-46.04-41.07-44.37-.97.81,40.44,43.57,38.15,45.49-.51.43-35.22-30.54-35.65-30.17s25.32,29.39,24.93,29.72c-.82.69-22.49-15.28-23.34-14.56-.32.27,13.3,14.45,12.61,15.03-.41.34-9.76-8.05-9.96-7.88-.23.19,9.69,10.91,9.37,11.17-.21.18-7.7.49-7.83.6-.05.05.26-.05.08.1" style="fill:none; stroke:#fff; stroke-linecap:round; stroke-linejoin:round; stroke-width:3.46px;"/><path d="m138.65,44.14c-.11.09,1.34,1.4,1.24,1.48-.4.34-11.2-4.64-11.31-4.55-.29.24,11.24,12.03,10.57,12.6s-18.03-13.38-18.58-12.91c-.85.71,16.47,17.58,15.46,18.43-.64.53-23.82-22.65-24-22.49-.27.23,21.84,23.62,20.65,24.62-.21.17-25.18-25.38-25.61-25.02-.38.32,26.38,30.06,25.69,30.64-.62.52-30.4-23.34-31.58-22.35-.5.42,29.45,32.88,28.35,33.81-.2.17-27.62-29.2-28.45-28.5-1.48,1.24,27.12,31.83,26.87,32.04-.54.45-27.78-20.04-28.69-19.28-.32.27,22.04,25.41,21.61,25.77-.75.63-21.77-20.49-22.55-19.83-1.1.92,18.92,21.97,18.63,22.22s-19.9-16.48-20.45-16.01c-.6.51,18.9,21.28,18.28,21.8-.26.22-21.71-17.55-22.21-17.14-.36.3,18.77,21.09,18.13,21.62-.59.5-19.02-13.04-19.29-12.81-.98.82,15.36,16.97,14.7,17.52-.31.26-17.57-15.24-17.76-15.08-.63.53,14.17,16.12,13.79,16.44-.64.54-19.11-8.84-19.55-8.47-.31.26,11.16,12.76,10.89,12.99-.41.35-13.4-13.7-13.95-13.23-.75.63,10.3,11.65,9.99,11.91-.17.14-16.76-9.44-17.2-9.08-.37.31,10.19,10.34,9.3,11.09-.23.19-8.92-7.09-9.07-6.96-.46.39,8.45,8.92,7.88,9.4-.27.23-17.17-10.47-17.38-10.29-.28.23,10.28,10.66,9.49,11.32-.31.26-11.45-6.13-11.51-6.07-.33.28,7.54,7.64,6.87,8.19-.27.23-15.09-6.21-15.31-6.02-.36.3,7.96,8.34,7.4,8.82-.38.32-12.41-9.28-12.48-9.22-.56.47,6,6.94,5.9,7.03-.06.05-8.28-7.24-8.55-7.01-.14.12,6.77,7.62,6.55,7.81" style="fill:none; stroke:#fff; stroke-linecap:round; stroke-linejoin:round; stroke-width:3.46px;"/></g></svg>