<?xml version="1.0" encoding="UTF-8"?><svg id="_レイヤー_2" xmlns="http://www.w3.org/2000/svg" viewBox="0 0 59.59 83.07"><g id="main"><path d="m.49,17.54c-.89,1.06-.39,2.51.18,3.62,1.68,3.21,3.9,6.11,6.08,9,3.4,4.42,5.89,9.44,9.06,14.03,1.87,2.66,3.38,5.54,5,8.36-.34,2.8-1.08,5.56-1.24,8.4.16,1.21.96,2.79,2.39,2.74,5.08.15,10.12-.76,15.08-1.74,1.66,4.13,3.49,8.2,5.73,12.06,1.82,3.08,3.05,6.68,5.89,9.04.51-1.14,1.17-2.32.8-3.6-.73-3.73-.5-7.59-1.44-11.28-.77-3.05-1.46-6.13-1.93-9.23,4.54-2.17,9.04-4.68,12.56-8.36.99-1.01,1.46-3.05,0-3.87-2.31-1.66-4.79-3.24-7.62-3.76.16-4.65-1.15-9.19-1.06-13.86.06-6.67-.35-13.36-1.6-19.93-.51-2.52-.83-5.22-2.29-7.4C44.88.11,42.6-.04,40.72,0c-6.42.29-12.87,1.46-18.79,4-5.67,2.42-11.01,5.54-16.14,8.96-1.9,1.34-3.88,2.7-5.31,4.58Zm46.07,58.11c-2.9-4.52-5.67-9.13-7.91-14.02,1.77-.5,3.5-1.05,5.22-1.68.64,5.28,2.7,10.33,2.68,15.7Zm.8-55.41c.55,6.61-.32,13.29.64,19.87.19,1.37.28,2.76.23,4.14,2.82,1.3,5.57,2.73,8.14,4.51-6.23,5.31-13.73,9.34-21.81,10.87-4.19.88-8.43,1.49-12.72,1.49.07-3.05.61-6.07.69-9.12,5.86.77,11.76-.77,17.05-3.22,1.43-.66,2.73-1.55,3.94-2.54-2.47.82-4.89,1.78-7.41,2.41-4.67,1.17-9.38,2.71-14.25,2.31-1.28-3.34-2.93-6.52-4.84-9.56-2.83-4.55-5.03-9.48-8.18-13.83-1.87-2.57-3.66-5.19-5.25-7.94,6.2.99,12.44-.23,18.43-1.85,5.06-1.49,9.66-4.16,14.25-6.68,3.44-1.9,6.46-4.57,8.61-7.86,1.72,5.49,2.26,11.28,2.49,17.01Z" style="fill:#fff;"/><path d="m19.76,41.92c1.53-2.64,3.84-5.14,3.98-8.33-1.27,2.82-3.17,5.32-3.98,8.33Z" style="fill:#fff;"/><path d="m25.42,39.34c-1.27,2.01-2.7,3.97-3.57,6.2,1.58-1.79,3.12-3.81,3.57-6.2Z" style="fill:#fff;"/><path d="m22.28,28.13c-1.81,2.35-3.21,5.08-3.56,8.05,1.28-2.45,2.66-4.84,3.97-7.27-.1-.19-.31-.58-.41-.79Z" style="fill:#fff;"/><path d="m18.58,25.14c-1.4,2.14-2.22,4.71-2.1,7.28,1.24-2.66,2.8-5.14,3.94-7.83-.61.13-1.49-.13-1.84.55Z" style="fill:#fff;"/></g></svg>