<?xml version="1.0" encoding="UTF-8"?><svg id="_レイヤー_2" xmlns="http://www.w3.org/2000/svg" viewBox="0 0 187.71 148.94"><g id="main"><path d="m92.94,140.63l-3.55,2.55-4.35.1-3.95,1.43-4.18.41-3.97,1.93-4.32-.79-4.17.51-4.19.81-4.19-1.15-4.23.68-4.25.27-4.22-.26-3.98-1.94-4.37.45-2.65-3.24.92-3.74-.67-3.76.6-3.67,2.9-2.67,4.08.8,3.89-1.52,3.86-.99,4.16.09,3.71-1.63,3.98-1.14,3.22-2.55,2.39-3.38,3.85-1.93,1.13-4.14,3.06-2.91.48-4.06,2.35-3.42-.44-4.11,1.38-3.8-.79-3.94-2.04-2.94-4.36.34-4.18-1.39-4.41.77-4.14-1.59-4.29-.32-4.31-.18-4.17-1.35-4.3-.29-4.19-1.01-4.36.17-4.26-.49-4.14-1.33-4.21-.84-4.37.32-2.07-3.04-.09-4.3-.81-4.3.6-4.31-.11-4.31.91-4.29-.45-4.32-.89-4.34.25-4.31.11-4.31,1.01-4.28-.37-4.34.2-4.27,2.91-1.86,4.24-.66,4.15.48,4.08,1.26,4.2-.21,4.15.4h4.19s4.05,1.46,4.05,1.46l4.18.02,4.18.18,4.05,1.48,4.19.15,4.26-.55,4.11.89,4.1,1.02,4.15.48,4.2.06,4.25-.44,4.09.92,4.15.41,4.02,1.5,4.19.08,4.17.2,4.19.13,4.09.83,4.04,1.18,1.51,2.09.61,4.08-1.34,4.01,1.32,3.89.22,4.1,1.57,3.77,2.06,3.51,2.91,2.78,2.03,3.54,3.43,2.12,3.48,1.88,3.1,2.56,1.74,2.62-.65,4.26-1.65,3.95-2.41,3.66-.24,4.46-1.44,4.03-2.7,3.47-2.31,3.59-.94,4.31-2.13,3.71-3.2,3.01-2.11,3.69-2.46,3.46-1.97,3.93-3.53,2.54-3.22,2.79-2.72,3.43-4.33,1.26-3.32,2.67-3.67,2.16-4.26.78Zm82.61-79.8l-2.38,3.32-3.94.97-3.37,1.93-3.81.66-3.71,1.83-3.9-1.3-3.81-.47-4.57-.81-3.62-2.99-4.24-1.83-3.78-2.77-2.96-3.67-.64-4.16-2.35-3.42-.53-4.03,1.05-3.96-.2-4.06,1.37-3.64,1.57-3.57,3.05-2.53,1.95-3.48,3-2.55,4.62-1.2,4.26-1.68h4.6s4.52-.46,4.52-.46l4.54-.6,3.98,2.45,4.66.1,3.34,3.19,4.21,1.72,2.14,4.04,3.41,3,.7,4.44,1.64,3.97-.66,4.22.02,4.3-2.32,3.64-.98,4.31-3.47,2.68-3.4,2.42Zm-17.29-26.13l-4.73,1.5-4.76,1.27-2.09,4.56.47,4.7,4.07,2.19,3.81,2.53,4.85-.38,3.92-2.63,3.41-3.51-1.5-4.6-3.54-2.68-3.89-2.96Z" style="fill:none; stroke:#fff; stroke-miterlimit:10; stroke-width:2.64px;"/><path d="m82.56,125.65l-3.55,2.55-4.35.1-3.95,1.43-4.18.41-3.97,1.93-4.32-.79-4.17.51-4.19.81-4.19-1.15-4.23.68-4.25.27-4.22-.26-3.98-1.94-4.37.45-2.65-3.24.92-3.74-.67-3.76.6-3.67,2.9-2.67,4.08.8,3.89-1.52,3.86-.99,4.16.09,3.71-1.63,3.98-1.14,3.22-2.55,2.39-3.38,3.85-1.93,1.13-4.14,3.06-2.91.48-4.06,2.35-3.42-.44-4.11,1.38-3.8-.79-3.94-2.04-2.94-4.36.34-4.18-1.39-4.41.77-4.14-1.59-4.29-.32-4.31-.18-4.17-1.35-4.3-.29-4.19-1.01-4.36.17-4.26-.49-4.14-1.33-4.21-.84-4.37.32-2.07-3.04-.09-4.3-.81-4.3.6-4.31-.11-4.31.91-4.29-.45-4.32-.89-4.34.25-4.31.11-4.31,1.01-4.28-.37-4.34.2-4.27,2.91-1.86,4.24-.66,4.15.48,4.08,1.26,4.2-.21,4.15.4h4.19s4.05,1.46,4.05,1.46l4.18.02,4.18.18,4.05,1.48,4.19.15,4.26-.55,4.11.89,4.1,1.02,4.15.48,4.2.06,4.25-.44,4.09.92,4.15.41,4.02,1.5,4.19.08,4.17.2,4.19.13,4.09.83,4.04,1.18,1.51,2.09.61,4.08-1.34,4.01,1.32,3.89.22,4.1,1.57,3.77,2.06,3.51,2.91,2.78,2.03,3.54,3.43,2.12,3.48,1.88,3.1,2.56,1.74,2.62-.65,4.26-1.65,3.95-2.41,3.66-.24,4.46-1.44,4.03-2.7,3.47-2.31,3.59-.94,4.31-2.13,3.71-3.2,3.01-2.11,3.69-2.46,3.46-1.97,3.93-3.53,2.54-3.22,2.79-2.72,3.43-4.33,1.26-3.32,2.67-3.67,2.16-4.26.78Zm82.61-79.8l-2.38,3.32-3.94.97-3.37,1.93-3.81.66-3.71,1.83-3.9-1.3-3.81-.47-4.57-.81-3.62-2.99-4.24-1.83-3.78-2.77-2.96-3.67-.64-4.16-2.35-3.42-.53-4.03,1.05-3.96-.2-4.06,1.37-3.64,1.57-3.57,3.05-2.53,1.95-3.48,3-2.55,4.62-1.2,4.26-1.68h4.6s4.52-.46,4.52-.46l4.54-.6,3.98,2.45,4.66.1,3.34,3.19,4.21,1.72,2.14,4.04,3.41,3,.7,4.44,1.64,3.97-.66,4.22.02,4.3-2.32,3.64-.98,4.31-3.47,2.68-3.4,2.42Zm-17.29-26.13l-4.73,1.5-4.76,1.27-2.09,4.56.47,4.7,4.07,2.19,3.81,2.53,4.85-.38,3.92-2.63,3.41-3.51-1.5-4.6-3.54-2.68-3.89-2.96Z" style="fill:none; stroke:#fff; stroke-miterlimit:10; stroke-width:2.64px;"/><path d="m148.85,19.24c.13.31,17.52-7.63,17.62-7.38.13.3-3.44,10.35-3.41,10.43.22.52,6.57-3.65,6.89-2.89.12.29-8.33,9.26-8.14,9.69.16.37,10.69-4.92,10.84-4.54" style="fill:none; stroke:#fff; stroke-linecap:round; stroke-linejoin:round; stroke-width:3.46px;"/><path d="m133.44,5.11c.1.24,1.92-1.05,2.01-.84.27.65-11.27,11.61-11.19,11.8.59,1.4,27.62-12.37,27.91-11.69.27.65-29.26,17.68-29.18,17.89.46,1.09,35.28-15.14,35.41-14.84.17.4-35.08,16.24-34.75,17.04.76,1.82,36.96-15.97,37.13-15.56.22.53-37.05,21.6-36.96,21.83.16.37,9.41-4.18,9.5-3.98.1.24-9.41,6.96-9.23,7.39.1.25,9.11-4.31,9.29-3.89.06.15-5.38,8.54-5.22,8.9.29.68,6.01-2.87,6.13-2.57.04.09-5.4,7.11-5.35,7.21.2.47,13-6.37,13.33-5.59.06.15-7.98,10.12-7.92,10.28.36.86,35.65-15.37,35.81-15,.22.52-20.77,16.05-20.38,16.98.32.77,14.6-6.47,14.72-6.17.08.19-9.29,6.68-9.09,7.15.04.09,4.26-2.4,4.48-1.88" style="fill:none; stroke:#fff; stroke-linecap:round; stroke-linejoin:round; stroke-width:3.46px;"/><path d="m27.55,119.44c.81,1.92,91.73-42.6,93.22-39.06.32.76-95.73,43.32-95.07,44.9.75,1.79,90.28-38.85,90.64-37.98,1.04,2.49-87.05,36.69-85.54,40.31,1.53,3.65,81.69-37.87,82.98-34.77.65,1.54-66.23,36.49-65.93,37.21,1.04,2.49,58.29-26.92,59.18-24.8.73,1.74-53.54,24.33-53.11,25.35.75,1.78,49.96-22.25,50.43-21.13.2.47-27.29,17.47-26.94,18.3.15.37,11.66-5.53,11.89-4.98" style="fill:none; stroke:#fff; stroke-linecap:round; stroke-linejoin:round; stroke-width:3.46px;"/><path d="m8.59,12.77c.06.15,3.21-1.51,3.27-1.37.15.37-4.59,8.03-4.55,8.14.17.41,18.45-8.84,18.85-7.9.33.78-17.48,13-17.21,13.65.51,1.21,27.88-13.39,28.49-11.94.36.86-32.38,17.54-32.27,17.79.17.4,37.17-17.61,37.9-15.88.12.29-37.78,18.95-37.52,19.57.23.55,46.63-20.73,47.05-19.72.45,1.08-48.07,28.39-47.21,30.44.4.96,68.26-31.11,69.16-28.98.19.45-69.17,30.56-68.38,32.44,1.35,3.23,75.5-32.29,75.74-31.74.68,1.62-76.16,39.13-75.03,41.84.4.95,91.37-39.79,91.91-38.51,1.22,2.92-89.21,38.71-87.93,41.77,1.51,3.61,93.1-40.13,93.5-39.18.54,1.29-84.29,38.36-83.29,40.74.8,1.91,84.18-37.57,85-35.62.4.95-76.32,36.37-75.56,38.17.46,1.09,75.53-33.92,76.34-31.99.89,2.11-60.84,31.45-60.43,32.42,1.17,2.78,62.09-28.23,62.88-26.35.42,1.01-56.39,27.15-56.13,27.77.72,1.71,56.35-24.85,56.79-23.8.7,1.67-38.26,25.03-37.78,26.17.33.78,43.51-19.03,43.79-18.35.54,1.29-45.82,19.54-45.1,21.27.82,1.95,43.96-19.38,44.3-18.56.23.55-46.87,25.9-46.26,27.35.5,1.2,52.15-25.23,53.36-22.36.56,1.34-50.69,22.88-50.32,23.78.66,1.58,53.55-24.73,54.36-22.78.48,1.14-62.19,32.29-61.82,33.18.43,1.02,57.91-27.66,59.12-24.77.8,1.91-60.54,30.22-60.37,30.63.55,1.31,58.44-27.61,59.56-24.96" style="fill:none; stroke:#fff; stroke-linecap:round; stroke-linejoin:round; stroke-width:3.46px;"/><path d="m69.11,81.51c-.37.19,20.29,35.14,18.22,36.18-.41.21-20.24-20.61-21.34-20.06-.57.29,13.43,24.56,12.59,24.99-.7.35-16.89-21.1-17.58-20.75-.37.19,11.35,20.22,10.42,20.69-.54.27-13.03-14.95-13.57-14.68-.76.38,10.1,19.01,9.68,19.22-.39.2-16.67-15.07-17.47-14.67-.62.31,8.09,13.96,7.25,14.39-.39.2-9.38-12.2-9.89-11.94-.35.18,6.05,9.88,5.19,10.31-.42.21-12.98-7.02-13.29-6.86-.38.19,5.84,10.34,5.33,10.59-.59.3-14.66-11.48-15.05-11.29s4.53,8.64,4.39,8.71" style="fill:none; stroke:#fff; stroke-linecap:round; stroke-linejoin:round; stroke-width:3.46px;"/><path d="m105.02,21.73c-.56.28,5.46,9.11,4.77,9.46-.17.08-6.59-8.08-6.82-7.97-1.28.64,23.26,41.33,21.32,42.32-.41.2-31.25-45.32-32.27-44.8-.94.47,31.07,57.59,29.43,58.42-.96.48-31.45-59.86-32.44-59.36-.79.4,31.75,59.57,30.36,60.27-2.68,1.35-39.58-61.16-41.21-60.34-2.56,1.29,36.6,68.36,34.87,69.23-.43.22-42.57-73.14-45.86-71.48-2.88,1.45,43.59,79.98,40.96,81.31-3.59,1.81-46.28-84.88-50-83-2.62,1.32,45.59,87.19,44.26,87.86-2.38,1.2-50.6-85.82-52.51-84.86-3.69,1.86,50.52,88.62,45.83,90.99-3.85,1.94-49.9-95.38-51.36-94.65-1.36.68,53.52,95.65,49.26,97.8-1.56.79-52.57-98.65-55.87-96.98-1.61.81,53.39,103.67,52.46,104.14-1.94.98-53.75-106.73-56.98-105.11-.48.24,28.8,53.46,27.31,54.21-.58.29-32.97-57.4-33.57-57.1-.37.19,29.39,52.26,26.95,53.5-.57.29-32.53-52.09-34.7-51-1.69.85,27.66,51.48,26.28,52.17-1.62.82-37.33-55.01-38-54.68-.82.41,27.21,49.5,25.4,50.42-1.21.61-25.64-46.96-25.91-46.82-.59.3,26.27,48.58,24.84,49.3-1.86.94-25.08-43.16-25.57-42.91-1.62.82,23.33,40.64,21.05,41.79-.98.49-21.13-39.81-22.12-39.31-1.16.59,21.51,39.34,20.16,40.02-.39.2-20.36-25.12-21.39-24.61-.8.4,12.75,22.43,11.59,23.01-.14.07-12.12-3.04-12.35-2.92-.12.06,1.32,2.16,1.14,2.26" style="fill:none; stroke:#fff; stroke-linecap:round; stroke-linejoin:round; stroke-width:3.46px;"/><path d="m123.35,55.42c-.44.22,4.53,8.22,4.22,8.38" style="fill:none; stroke:#fff; stroke-linecap:round; stroke-linejoin:round; stroke-width:3.46px;"/><path d="m157.52,31.41c-.44.22,6.89,12.65,6.48,12.86-.13.07-7.41-4.34-7.55-4.27-.18.09,4.08,6.69,3.51,6.97-.18.09-9.26-8.49-9.43-8.4-.49.25,4.49,7.55,3.94,7.83-.51.26-11.64-6.96-12.12-6.72s5.32,9.32,4.82,9.57" style="fill:none; stroke:#fff; stroke-linecap:round; stroke-linejoin:round; stroke-width:3.46px;"/><path d="m172.28,16.2c-.32.16.7.6.38.75-.29.15-7.05-7.69-7.27-7.58-.52.26,6.74,12.59,6.42,12.75-.18.09-10.38-12.44-10.73-12.26-1.17.59,10.19,18.46,9.48,18.81-.79.4-18.1-20.74-18.46-20.56-.39.2,16.65,28.83,14.95,29.68-.23.12-17.68-30.09-18.07-29.89-.57.29,18.34,33.74,17.27,34.28-.6.3-20.12-37.26-21.76-36.43-.28.14,6.53,12.41,6.31,12.52-.5.25-9.24-10.74-9.4-10.66-.35.18,5.42,10.39,5.27,10.47-.43.22-14.34-10.17-15.01-9.83-.4.2,5.68,10.18,5.24,10.4-.33.17-7.12-8.08-7.29-8-.49.25,5.2,8.65,4.53,8.99-.34.17-10.36-3.32-10.57-3.21-1.1.55,17.77,33.11,16.9,33.55-.8.4-18.18-26.5-18.89-26.15-.37.19,12.91,24.11,12.3,24.42-.47.23-12.74-18.54-13.29-18.27-.79.4,6.63,12.38,6.32,12.54-.11.05-5.63-5.53-5.73-5.48-.3.15,1.71,2.77,1.46,2.89" style="fill:none; stroke:#fff; stroke-linecap:round; stroke-linejoin:round; stroke-width:3.46px;"/></g></svg>