<?xml version="1.0" encoding="UTF-8"?><svg id="_レイヤー_2" xmlns="http://www.w3.org/2000/svg" viewBox="0 0 216.92 318.63"><g id="main"><path d="m205.93,1.86c5.93,21.91,8.89,44.67,7.78,67.38-1.04,21.2-5.71,42.34-14.75,61.59-7.91,16.85-18.95,32.26-32.75,44.78-6.93,6.28-14.54,11.79-22.72,16.32-7.23,4.01-14.79,7.04-22.97,8.42-14.18,2.38-32.62-.29-38.11-15.75-3.33-9.37-1.2-20.6,2.78-29.47,3.41-7.59,9.04-15.23,17.18-18.1,9.18-3.24,18.54.91,25.01,7.58s10.36,16.01,11.62,25.3c2.7,19.87-5.32,39.2-17.71,54.4-13.13,16.11-30.37,28.82-47.55,40.28-18.21,12.16-37.53,22.67-57.63,31.36-4.97,2.15-9.99,4.18-15.06,6.1l1.69,2.2c4.62-9.44,9.24-18.88,13.86-28.32l-2.59-1.51c-3.96,9.15-7.92,18.3-11.88,27.45-.4.92-.1,1.86.9,2.2,13.9,4.81,27.8,9.63,41.69,14.44,1.83.63,2.61-2.26.8-2.89-13.9-4.81-27.8-9.63-41.69-14.44l.9,2.2c3.96-9.15,7.92-18.3,11.88-27.45.75-1.73-1.73-3.28-2.59-1.51-4.62,9.44-9.24,18.88-13.86,28.32-.52,1.05.36,2.71,1.69,2.2,21.48-8.15,42.19-18.29,61.77-30.31,9.77-6,19.26-12.46,28.42-19.36,8.52-6.42,16.81-13.2,24.25-20.86,14.39-14.83,25.38-33.37,26.16-54.46.36-9.77-1.55-19.73-6.29-28.34-4.61-8.38-12.26-15.96-21.83-18.14-19.92-4.53-32.85,16.53-35.74,33.32-1.66,9.65-.6,19.98,6.21,27.51,5.16,5.7,12.62,8.51,20.09,9.46,17.53,2.22,34.4-4.9,48.68-14.47,16.23-10.87,29.75-25.52,39.97-42.12,11.03-17.91,18.06-38.02,21.24-58.78,3.58-23.33,2.53-47.18-1.98-70.31-1.12-5.73-2.45-11.4-3.98-17.03-.5-1.86-3.4-1.07-2.89.8h0Z" style="fill:#fff;"/></g></svg>