<?xml version="1.0" encoding="UTF-8"?><svg id="_レイヤー_2" xmlns="http://www.w3.org/2000/svg" viewBox="0 0 106.45 313.17"><g id="main"><path d="m25.95.41C13.04,12.3,4.94,28.47,1.73,45.62S-.08,81.45,5.26,98.4s15.35,34.93,29.94,46.41c7.41,5.83,16.38,10.13,25.93,10.55,8.85.38,17.72-3.34,24.18-9.28s10.28-13.99,9-22.55c-1.14-7.64-6.28-13.91-13.01-17.46s-14.98-4.72-22.64-3.69c-8.38,1.13-15.95,5.16-22.29,10.65-13.61,11.79-20.51,29.87-22.93,47.32-2.58,18.59-.23,37.62,5.76,55.35,6.14,18.16,15.97,34.96,28.3,49.61,12.39,14.72,27.43,27.33,44.29,36.63,4.02,2.22,8.14,4.23,12.35,6.05,1.75.76,3.28-1.83,1.51-2.59-16.81-7.25-32.09-17.77-45.18-30.53-13.16-12.83-24.15-27.92-32.09-44.51-7.77-16.24-12.53-34.05-12.97-52.1-.42-17.26,3.01-35.34,12.19-50.17,4.38-7.07,10.18-13.29,17.33-17.6,6.7-4.05,14.22-5.94,22.05-5.36,7.03.52,14.28,3.11,19.2,8.33,5.32,5.64,6.76,13.81,3.85,20.97-3.13,7.71-10.36,13.59-18.1,16.28-8.55,2.97-17.64,1.6-25.65-2.34-16.21-7.98-27.47-24.44-34.41-40.65-6.7-15.66-9.77-32.99-8.66-50S9.61,24.64,19.85,11.44c2.48-3.2,5.25-6.17,8.22-8.91,1.42-1.31-.7-3.43-2.12-2.12h0Z" style="fill:#fff;"/><path d="m103.31,280.89c-2.05,8.58-2,17.52.15,26.07l1.45-1.9c-13.09,1.7-26.17,3.4-39.26,5.11-.81.11-1.49.61-1.5,1.5,0,.73.7,1.6,1.5,1.5,13.09-1.7,26.17-3.4,39.26-5.11.96-.13,1.71-.86,1.45-1.9-2.02-8.03-2.07-16.42-.15-24.48.45-1.88-2.44-2.68-2.89-.8h0Z" style="fill:#fff;"/></g></svg>