<?xml version="1.0" encoding="UTF-8"?><svg id="_レイヤー_2" xmlns="http://www.w3.org/2000/svg" viewBox="0 0 36.28 61.28"><g id="main"><path d="m35.45,5.57c-.16-.7.15-1.8-.79-1.99C29.87,1.74,24.84.58,19.75,0c-.48-.01-.94.1-1.38.31-4.02,8.34-7.5,17.04-9.34,26.16-1.78,5.91-1.85,12.16-1.83,18.28-2.27.87-4.72,1.47-6.7,2.95-1.14.89-.08,2.44.73,3.17,2.81,2.29,5.94,4.2,9.31,5.58,2.64,1.06,5.04,2.75,7.88,3.25,1.75.33,3.38,1.03,5.08,1.57,1.91-3.23,3.02-6.84,4.76-10.15.97-1.99,2.32-3.9,2.51-6.14.21-1.19-.87-1.9-1.61-2.6-.04-.25-.13-.78-.16-1.03-.74-.26-1.48-.52-2.21-.74,1.86-10.69,4-21.56,9.11-31.25.79-1.24.23-2.66-.45-3.79ZM10.77,54.02c-2.64-1.08-5.05-2.63-7.26-4.42,1.91-1.08,5.03-1.27,5.63-3.78-.16-1.48-.74-2.92-.63-4.42.14-4.86,1.14-9.64,2.1-14.39,1.09-5.33,3.07-10.43,5.04-15.48,1.18-3,2.55-5.92,4.16-8.71,4.21.59,8.39,1.41,12.42,2.8-3.58,5.09-6.13,10.83-8.07,16.73-1.29,3.95-2.09,8.07-2.37,12.21-.1,2.69-1.68,5.04-1.99,7.69.21.75.73,1.37,1.16,2.01,1.87-.45,3.77-.77,5.68-1.02-1.18,2.61-2.51,5.15-4.08,7.55-1.41,2.11-2.31,4.5-3.54,6.72-2.89-.8-5.47-2.36-8.23-3.49Z" style="fill:#fff;"/></g></svg>