<?xml version="1.0" encoding="UTF-8"?><svg id="_レイヤー_2" xmlns="http://www.w3.org/2000/svg" viewBox="0 0 104.55 92.45"><g id="main"><path d="m7.86,73.76c1.67,1.89,4.3,2.21,6.66,2.59,5.03.75,10.04,2.01,15.17,1.92.28,5.02,2.71,9.53,5.84,13.33,1.09,1.24,3.06,1.02,4.23-.02,2.79-2.29,3.96-5.89,6.29-8.55.8-.92,2.01-.3,2.99-.12,4.72,1.42,9.73.99,14.57,1.92,5.6.47,11.09,2.41,16.79,1.79,4.45.3,7.78-3.14,11.14-5.54,3.6-3.86,4.45-9.37,5.9-14.28,3.66-11.66,4.65-23.92,6.15-35.99.28-3.04,1.42-6.14.74-9.18-2.06-4-7.26-4.21-9.87-7.58-1.35-1.34-3.16-2.09-4.88-2.79-5.17-1.94-10.52-3.38-15.7-5.29-6.81-2.24-14.02-2.99-21.11-3.8-4.33-.64-8.66-1.34-13.05-1.46-3.31-.3-6.64.2-9.95-.23C24.1-.13,18.11-.55,12.71,1.71c-3.21,1.12-5.7,3.76-6.87,6.94C.87,21.29.22,35.09,0,48.52c.3,5.94-.18,12.56,3.56,17.61,1.87,2.29,2.39,5.37,4.3,7.63Zm-.77-60.93c.89-2.91,2.16-6.04,4.97-7.58,6-3.53,13.31-2.78,19.95-2.09,5.08,1.17,10.34,1.35,15.45,2.36,8.8,1.76,17.95,2.01,26.44,5.13,5.42,2.02,11.04,3.5,16.32,5.87,2.44,1.02,3.76,3.66,3.8,6.22.49,8.2-.13,16.41-.57,24.59-.25,5.32-1.29,10.55-2.71,15.67-1.3,4.93-2.66,10.24-6.52,13.85-1.79,1.74-4.47,1.77-6.77,1.81-8.53-.08-16.73-2.68-25.1-3.8-3.04-.35-6.04-.87-8.98-1.62-1.57-.47-3.53.15-4.11,1.77-1.51,3.09-2.43,6.57-4.83,9.15-1.52-3.78-1.74-7.86-2.39-11.82-.27-.69-.2-1.67-.89-2.07-5.4-1.72-11.16-.79-16.69-1.61-3.78-.69-8.09-2.34-9.62-6.19-1.64-4.28-1.47-8.93-1.76-13.43-.2-12.14.38-24.52,4.01-36.21Z" style="fill:#fff;"/><path d="m70.28,64.09c2.36.59,4.87.13,7.14-.6,3.58-1.25,5.52-4.98,6.26-8.48.32-2.56.32-5.59-1.57-7.56-2.81-2.89-7.26-3.19-10.07-6.09-1.04-1.07-2.06-2.68-1.27-4.16,1.07-2.39,3.14-4.75,5.95-4.82,1.67-.08,3.71-.23,5.05,1,.69,1.62.99,3.4,1.86,4.95.17-2.31.67-5.07-.94-6.99-1.89-1.71-4.65-1.69-7.02-1.59-4.1.1-7.11,3.78-8.09,7.46-.6,3.53,1.96,6.81,4.78,8.61,2.39,1.71,5.59,2.16,7.63,4.37,1.46,3.8-1.25,8.85-5.49,9.13-3.61.57-6.14-2.59-8.83-4.42-.42,1-1.12,2.04-.64,3.16.82,2.58,2.53,5.18,5.25,6.02Z" style="fill:#fff;"/><path d="m44.96,26.23c1.81,4.55,1.79,9.5,2.89,14.22.64,2.06,1.54,4.63,3.86,5.23,2.54-4.35,4.45-9.07,6.54-13.66.25,7.58-1.56,14.99-1.92,22.51-.02,2.39.64,4.72,1.09,7.04,2.26-1.29,3.13-4.01,3.23-6.47.18-9.8,1.74-19.6,1.07-29.42.02-1.42-1.64-2.26-2.86-1.81-1.67.17-2.27,1.89-2.86,3.18-1.47,3.43-3.13,6.77-4.78,10.1-.87-4.37-1.27-8.95-3.26-13-.67-1.57-2.48-2.89-4.2-2.14-2.02.38-2.27,2.79-2.94,4.4-2.24,6.36-1.76,13.16-2.39,19.77-.12,2.76-.6,5.75.84,8.3,3.08-9.18,2.17-19.2,5.7-28.25Z" style="fill:#fff;"/><path d="m23.57,38.94c1.81.79,4.2,1.19,5.1,3.14.75,2.96.72,6.51-1.42,8.9-.8.99-2.06,2.01-3.38,1.35-3.43-1.49-4.82-5.45-4.98-8.93-2.14,2.32-2.81,5.82-1.44,8.73,1.29,3.46,5.2,6.12,8.93,5.1,3.88-1.54,5.74-5.95,6.14-9.85-.05-3.04-.17-6.61-2.56-8.83-2.21-2.14-5.42-2.49-7.96-4.05-1.81-1.12-2.74-3.6-1.77-5.57,1.42-3.28,4.57-5.9,8.16-6.36.7.13,1.79.1,2.02.99,1.05,2.37.62,5.1,1.61,7.49,1.27-2.96,1.52-6.37.5-9.45-.49-1.54-2.02-2.59-3.6-2.66-4.42-.33-8.58,2.49-10.67,6.26-1.35,2.44-2.34,5.49-1.02,8.15,1.02,2.83,3.55,4.73,6.34,5.59Z" style="fill:#fff;"/></g></svg>