<?xml version="1.0" encoding="UTF-8"?><svg id="_レイヤー_2" xmlns="http://www.w3.org/2000/svg" viewBox="0 0 106.94 134.32"><g id="main"><path d="m100.64,118.24c2.27-2.76,4.44-5.82,5.24-9.36.12-1.79.39-3.55.76-5.29.95-6.8-.51-13.62-1.69-20.29-1.94-10.3-3.5-20.69-6-30.88-1.99-8.03-3.05-16.3-5.69-24.15-2.47-7.61-4.16-15.51-7.64-22.74-1.21-2.61-3.85-4.21-6.44-5.18-2.14-.54-4.39-.32-6.54-.11-2.88.45-5.69,1.26-8.59,1.6-2.44.28-4.87.67-7.25,1.24-3.07.75-6.24.91-9.29,1.75-10.29,2.63-20.71,4.87-30.74,8.41-3.37,1.21-6.82,2.44-9.68,4.65C3.66,20.29,1.22,23.98.16,27.99c-.27,2.33-.19,4.69.22,6.99.7,4.2,1.01,8.45,1.95,12.59,1.73,7.64,2.76,15.39,4.5,23.02,1.21,6.01,3.29,11.8,4.24,17.87,1.07,6.88,2.96,13.62,4.97,20.27,1.75,6.33,2.48,13.12,5.97,18.83.95,1.75,1.95,3.67,3.84,4.56,2.04.91,4.24,1.42,6.42,1.79,4.88.56,9.82.57,14.68-.17,5.41-.83,10.9-1.38,16.26-2.55,3.58-.79,7.17-1.57,10.82-2.05,7.1-.92,14.13-2.7,20.7-5.58,2.53-1.05,4.17-3.33,5.93-5.33ZM8.39,19.95c.74-1.25,2.16-1.86,3.39-2.52,7.38-3.48,15.33-5.48,23.3-7.03,4.34-.84,8.57-2.13,12.91-2.95,1.88-.44,3.78-.63,5.68-.87,1.1-.15,2.19-.3,3.27-.53,4.78-1.02,9.69-1.16,14.45-2.24,2.89-.44,6.05-.64,8.7.81,1.26.64,2.51,1.53,3.09,2.89,3.32,6.91,5.05,14.44,7.5,21.68,2.72,7.76,3.79,15.94,5.81,23.9,2.56,10.26,4.12,20.74,6.19,31.11,1.26,6.52,2.73,13.21,1.64,19.88-.46,3.13-2.38,5.9-4.97,7.69-3.88,2.98-8.73,4.13-13.37,5.3-5.5,1.35-11.01,2.8-16.57,3.9-2.8.56-5.6,1.03-8.44,1.35-5.81.66-11.61,1.42-17.46,1.58-4.41-.13-8.88-.36-13.15-1.56-1.73-.44-2.98-1.87-3.73-3.41-1.51-3.04-2.2-6.4-3.05-9.65-1.97-8.16-4.44-16.19-5.94-24.44-1.67-8.95-4.01-17.77-5.18-26.79-.77-5.5-1.36-11.03-2.08-16.55-.76-5.86-2.04-11.66-2.33-17.56-.06-1.33-.08-2.7.32-3.98Z" style="fill:#fff;"/><path d="m16.33,40.77c.39,3.21,1,6.42,2.06,9.5,1.76,5.12,2.43,10.53,3.89,15.73,1.16,4.06,2.05,8.19,2.65,12.35.77,5.27,2.04,10.45,3.22,15.63,1.15,5.39,2.3,10.96,5.41,15.63,1.31,1.96,2.99,4.26,5.6,4.26,3.05,0,6.09-.58,9.13-.82,5.09-.38,9.87-2.32,14.85-3.24,1.41-.28,2.82-.56,4.22-.86,3.86-.84,7.69-1.78,11.49-2.8,5.26-1.42,10.73-2.54,15.44-5.41,2.04-1.17,3.08-3.61,2.91-5.91-.11-2.58-.56-5.14-1.02-7.66-1.61-6.65-3.51-13.23-4.35-20.04-1.33-8.63-3.9-17.02-5.49-25.6-1.15-7.06-3.88-13.75-4.93-20.84-.58-3.36-.59-6.84-1.72-10.08-.4-1.28-.96-2.79-2.42-3.12-2.71-.66-5.53-.25-8.27-.03-2.06.35-4.26.13-6.21.97-1.34.63-.72,2.29-.81,3.45.17,1.22-1.12,1.7-2.02,2.06-1.63.57-3.29,1.07-4.94,1.56-1.6.47-3.21.92-4.8,1.4-3.46,1-6.8,2.37-10.31,3.14-1.43.36-3.21.17-4.13-1.13-.94-1.02-1.23-2.75-2.66-3.22-1.83.04-3.55.84-5.26,1.42-3.58,1.44-7.39,2.22-10.87,3.9-1.26.69-3.26.53-3.83,2.1-.16,2.44.64,4.81,1.09,7.19.64,3.49,1.66,6.93,2.09,10.47Zm4.23-19.05c1.69-.78,3.13-2.07,4.97-2.56,2.42-.75,4.81-1.6,7.31-2.08.84,1.59,1.5,3.45,3.1,4.44,1.34.88,3.05.79,4.58.55,2.82-.56,5.5-1.62,8.21-2.54,3.81-1.32,7.72-2.36,11.51-3.75,1.05-.45,2.3-.82,2.88-1.89.65-1.12.57-2.46.56-3.7,3.94-.58,7.92-1.22,11.93-1.2.84.06,2.02-.01,2.43.92,1.3,2.74,1.45,5.82,1.77,8.79.56,5.45,1.95,10.77,3.41,16.03,1.21,4.34,1.71,8.83,2.73,13.21,1.11,4.8,2.16,9.6,3.21,14.41.98,4.54,1.23,9.21,2.35,13.73,1.39,6.49,3.45,12.91,3.66,19.59-.09,1.3-.93,2.44-2.05,3.05-3.19,1.96-6.77,3.13-10.35,4.14-3.71,1.04-7.45,2.06-11.2,3-4.96,1.29-10.04,2.08-14.95,3.5-2.95.87-5.96,1.61-9.04,1.81-2.81.19-5.63.81-8.46.51-1.67-.13-2.67-1.63-3.58-2.85-3-4.12-4.07-9.21-5.12-14.09-1.19-5.5-2.7-10.95-3.57-16.52-.63-4.02-1.47-7.99-2.61-11.87-1.11-3.83-1.85-7.74-2.72-11.61-.78-3.51-2.19-6.85-2.77-10.39-.45-2.65-.66-5.35-1.19-7.99-.87-4.33-1.69-8.69-1.94-13.12,1.66-.44,3.41-.68,4.94-1.52Z" style="fill:#fff;"/><path d="m27.31,59.35c.48,1.89,1.32,4.06,3.31,4.79,2.91.83,5.97.19,8.87-.37,4.07-.82,8.2-1.21,12.25-2.11,7.72-1.76,15.55-3.01,23.19-5.08,1.22-.41,2.54-.84,3.39-1.85.85-1.17,1.16-2.63,1.36-4.04.4-3.46-.01-6.93-.19-10.39-.18-3.46-1.13-6.8-2.07-10.11-.7-2.56-1.35-5.34-3.07-7.41-2.48-.81-5.2-.86-7.79-.55-2.16.49-4.35.85-6.53,1.17-7.85,1.45-15.7,2.93-23.49,4.67-3.32.76-6.75,1.28-9.93,2.53-1.83.76-3.78,2.08-4.09,4.2-.54,3.22.27,6.48.94,9.62,1.11,5.02,2.77,9.9,3.85,14.94Zm11.85-19.04c.18-1.8,1.79-3.09,3.38-3.7,2.19-.85,5.26-.31,6.44,1.9,1.23,2.94-1.21,6.34-4.23,6.72-2.88.6-5.76-2.05-5.59-4.92Zm17.42-5.41c.76-1.8,2.52-3.03,4.35-3.52,1.99-.56,4.63-.03,5.64,1.94,1.29,3.89-2.76,8.02-6.66,7.36-2.43-.56-4.26-3.35-3.33-5.77Zm-14.35,26.28c-.82-2.73-1.48-5.55-1.35-8.41.02-2.22.47-4.39.85-6.56,2.48.7,5.19.25,7.15-1.47,1.67,2.54,3.19,5.19,4.27,8.04.78,2.02,1.03,4.21,1.61,6.3-4.14.92-8.32,1.58-12.53,2.09Zm15.8-2.75c.68-4.28.4-8.69,1.56-12.91.25-1.3,1.06-2.37,1.78-3.45,1.85-.31,3.57-1.12,5-2.33.86,1.23,1.73,2.45,2.7,3.6,3,3.23,4.21,7.61,5.36,11.75-5.45,1.19-10.89,2.38-16.39,3.33Z" style="fill:#fff;"/><path d="m70.87,64.64c-2.57-1.07-5.39.4-7.13,2.3-2.88,3.27-4.4,7.55-4.89,11.84-2.3-2.37-5.11-4.24-8.13-5.55-1.79-.79-3.92-1.03-5.71-.12-2.24,1.01-3.39,3.68-2.82,6.03.62,2.66,2.23,4.97,3.87,7.1,3.29,4.11,7.33,7.72,12.13,9.95,1.95,1.03,4.24,1.42,5.92,2.9.36.23.76.85,1.11.23,3.51-3.04,5.63-7.25,7.35-11.48,2.15-5.54,3.59-11.62,2.29-17.55-.51-2.28-1.66-4.75-3.99-5.65Z" style="fill:#fff;"/><path d="m67.68,110.36c-.27.04-.53.11-.77.21-2.66.84-4.09,4.15-2.93,6.63.95,1.92,3.11,2.57,5.12,2.26,2.36-.38,4.52-2.07,4.36-4.62.23-2.95-3.1-4.96-5.78-4.49Zm4.02,4.84c-.11,1.66-1.95,2.41-3.33,2.79-1.85.49-4.22-1.07-3.68-3.13.49-1.29,1.85-2.06,3.05-2.58,1.73-.39,4.33.85,3.96,2.93Z" style="fill:#fff;"/><path d="m54.44,13.44c.16-.03.31-.08.47-.15,1.23-.95,1.41-2.66,1.44-4.11-.74-.34-1.57-.46-2.36-.35-.58.09-1.15.31-1.64.68-.47.62-.75,1.35-1.1,2.04.6,1.21,1.83,2.15,3.19,1.88Z" style="fill:#fff;"/><path d="m40.5,102.96c-.66.3-1.19.82-1.63,1.38,3.68-.53,7.36-1.59,10.47-3.68-3.09-.04-6.1.94-8.84,2.3Z" style="fill:#fff;"/><path d="m46.73,15.13c1.78-.86,1.68-3.19,1.56-4.87-1.58-.69-3.78-.17-4.2,1.7.07,1.38,1.01,3.33,2.64,3.17Z" style="fill:#fff;"/><path d="m39.42,99.52c-.59.15-.75.74-.96,1.22,3.65-.77,7.42-1.14,10.93-2.46-3.35-.98-6.88-.18-9.97,1.24Z" style="fill:#fff;"/><path d="m32.31,72.75c.25.4.49.79.74,1.19,1.7-.35,3.38-.81,5-1.43,1.89-.74,3.9-1.16,5.72-2.11-3.93-.01-7.88.7-11.46,2.36Z" style="fill:#fff;"/><path d="m41.13,108.48c2.94.01,5.86-.94,8.32-2.52-2.93.43-5.75,1.42-8.68,1.94l.36.58Z" style="fill:#fff;"/><path d="m39.45,17.84c1.42-1.01,2.76-2.73,2.29-4.58-.44-1.3-2.11-1.67-3.24-1.07-1.33.89-2.1,2.94-1.17,4.39.4.73,1.17,1.76,2.13,1.26Z" style="fill:#fff;"/><path d="m35.59,67.9c-1.71.43-3.61.55-5.02,1.73,5.92-.48,12.14-1,17.36-4.07-4.14.64-8.23,1.52-12.34,2.34Z" style="fill:#fff;"/></g></svg>