<?xml version="1.0" encoding="UTF-8"?><svg id="_レイヤー_2" xmlns="http://www.w3.org/2000/svg" viewBox="0 0 30.55 37.01"><g id="main"><path d="m13.21,1.16C12.52.24,11.45-.08,10.34.02c-.48,3.86-.7,7.77-.39,11.65-3.42,1.97-7.07,3.71-9.95,6.46.23,1.14.93,2.35,2.17,2.58,2.7.58,5.43,1.09,8.03,2.06.03,3.72.05,7.44.43,11.13.25,1.23.79,3.1,2.31,3.12.9-.8,1.46-1.9,2.02-2.94,1.43-2.81,2.84-5.63,4.1-8.53,3.63,1.38,7.21,3.03,11.12,3.44.74-1.7.29-3.51-.63-5.04-1.82-3.24-3.73-6.46-5.74-9.59,1.22-2.95,2.64-5.88,3-9.1-.68-.33-1.39-.87-2.19-.53-2.05.55-3.86,1.7-5.77,2.58-1.75-2.17-3.83-4.05-5.65-6.14Zm-3.12,19.62c-2.32-.8-4.69-1.43-7.07-1.99,2.32-1.56,4.75-2.95,7.21-4.28-.18,2.09-.18,4.18-.14,6.27Zm1.48-18.17c1.61,1.99,3.42,3.79,5.11,5.72-1.78.82-3.53,1.7-5.29,2.56.24-2.75.18-5.52.18-8.28Zm1.58,29.22c-.34-2.78-.62-5.57-.87-8.36,1.48.44,2.98.88,4.46,1.33-1.09,2.39-2.3,4.74-3.59,7.02Zm4.37-8.82c-1.82-.49-3.64-1.01-5.45-1.52-.25-2.55-.41-5.11-.53-7.67,2.21-1.11,4.46-2.15,6.72-3.19.88,1.36,1.92,2.63,2.71,4.06-.97,2.84-2.45,5.49-3.46,8.32Zm10.77,3.47c-2.93-.65-5.69-1.78-8.51-2.75.92-2.26,1.85-4.51,2.83-6.74,1.92,3.14,3.86,6.27,5.68,9.49Zm-4.32-18.46c-.54,1.38-1.12,2.75-1.72,4.12-.59-.84-1.18-1.67-1.78-2.49,1.17-.57,2.34-1.12,3.51-1.63Z" style="fill:#fff;"/></g></svg>