<?xml version="1.0" encoding="UTF-8"?><svg id="_レイヤー_2" xmlns="http://www.w3.org/2000/svg" viewBox="0 0 29.69 26.64"><g id="main"><path d="m.92,15.83c1.97.54,4.05.63,6.02,1.17,1.26.14,2.51.34,3.77.57.08,2.53-.1,5.05.3,7.55.1.68.59,1.21,1.18,1.52,1.86-2.5,3.47-5.2,5.25-7.77,3.86.69,7.68,1.53,11.54,2.17l.72-1.58c-2.35-2.73-4.83-5.34-7.23-8.02,1.37-2.04,2.71-4.08,4.12-6.08.62-1.01,1.56-1.97,1.55-3.24-.25-.04-.77-.14-1.02-.18-3.42.84-6.46,2.71-9.68,4.07C15.13,3.98,13.5.8,10.33,0c-.1,3.09-.09,6.19.13,9.29-3.48,1.67-7.06,3.15-10.45,5.04.28.52.59,1.02.92,1.51Z" style="fill:#fff;"/></g></svg>