<?xml version="1.0" encoding="UTF-8"?><svg id="_レイヤー_2" xmlns="http://www.w3.org/2000/svg" viewBox="0 0 145.1 148.5"><g id="main"><path d="m101.27,103.94l.06,3.9,2.86,3.04,2.52,3.32,2.33,3.57,3.73,2.16,3.22,2.66,2.7,3.29,3.06,2.9,3.88,1.77,1.02,3.68-2.88,3.15-2.38,3.42-2.88,3.04-2.72,3.34-4.06-.02-3.83-2.03-4.14-1.5-3.1-3.22-3.79-2.1-3.56-2.47-3.53-2.53-2.88-3.27-3.16-2.95-2.76-3.32-3.18-.21-3.51,2.26-3.67,1.98-3.91,1.46-3.95,1.31-3.94,1.28-3.71,1.96-4.11.76-4.03.89-3.98,1.14-3.91,1.7-4.25-.5-4.11.28-4.08.94-2.9-2.49-1.96-3.59-.37-4.09-.11-4.04,1.37-3.37,4.48.11,4.13-1.38,3.99-1.72,4.02-1.62,4.1-1.51,3.51-2.62,3.85-2.06,3.3-2.85,3.27-2.89,2.17-3.85,3.04-3.1,2.27-4.03,1.67-4.3,2.61-3.95.69-4.61-1.95-2.41-4.3.16-4.29-.18-4.25-.55-4.14-1.51-4.28-.29-4.26-.47-4.23-.72-4.37.28-4.11-1.57-4.31-.16-4.31-.12-4.19-.89-2.99-2.59-.13-4.19-.99-4.07.23-4.19v-4.16s-.6-4.13-.6-4.13l-.32-4.15-.3-4.15,1.28-4.13-.21-4.14.41-4.12v-4.15s.03-4.14.03-4.14l2.87-2.77,4.2-.43,4.24.39,4.18-1.15,4.23.09,4.22.25,4.22-.06,4.21.64,4.22-.12,4.22.05,4.24-.23,4.17.96,4.27-.34,4.18.67,4.2.44,4.15.9,4.23.07,4.24.07,4.15.81,4.16.68,4.1,1.09,4.22.26,4.18.62,4.2.47,4.15.77,4.15.73,4.06,1.18,4.16.65,4.28.08,3.93,1.77,4.25.27,2,3.52-1.22,4.03-1.93,3.75-1.08,4.06-2.23,3.6-1.82,3.75-1.67,3.81-1.42,3.95-1.98,3.68-1.98,3.68-1.92,3.72-2.44,3.42-2.04,3.66-2.76,3.19-1.77,3.85-2.47,3.38-2.68,3.22-2.52,3.34-2.76,3.14-2.6,3.28-3.11,2.81Z" style="fill:none; stroke:#fff; stroke-miterlimit:10; stroke-width:2.64px;"/><path d="m90.9,88.96l.06,3.9,2.86,3.04,2.52,3.32,2.33,3.57,3.73,2.16,3.22,2.66,2.7,3.29,3.06,2.9,3.88,1.77,1.02,3.68-2.88,3.15-2.38,3.42-2.88,3.04-2.72,3.34-4.06-.02-3.83-2.03-4.14-1.5-3.1-3.22-3.79-2.1-3.56-2.47-3.53-2.53-2.88-3.27-3.16-2.95-2.76-3.32-3.18-.21-3.51,2.26-3.67,1.98-3.91,1.46-3.95,1.31-3.94,1.28-3.71,1.96-4.11.76-4.03.89-3.98,1.14-3.91,1.7-4.25-.5-4.11.28-4.08.94-2.9-2.49-1.96-3.59-.37-4.09-.11-4.04,1.37-3.37,4.48.11,4.13-1.38,3.99-1.72,4.02-1.62,4.1-1.51,3.51-2.62,3.85-2.06,3.3-2.85,3.27-2.89,2.17-3.85,3.04-3.1,2.27-4.03,1.67-4.3,2.61-3.95.69-4.61-1.95-2.41-4.3.16-4.29-.18-4.25-.55-4.14-1.51-4.28-.29-4.26-.47-4.23-.72-4.37.28-4.11-1.57-4.31-.16-4.31-.12-4.19-.89-2.99-2.59-.13-4.19-.99-4.07.23-4.19v-4.16s-.6-4.13-.6-4.13l-.32-4.15-.3-4.15,1.28-4.13-.21-4.14.41-4.12v-4.15s.03-4.14.03-4.14l2.87-2.77,4.2-.43,4.24.39,4.18-1.15,4.23.09,4.22.25,4.22-.06,4.21.64,4.22-.12,4.22.05,4.24-.23,4.17.96,4.27-.34,4.18.67,4.2.44,4.15.9,4.23.07,4.24.07,4.15.81,4.16.68,4.1,1.09,4.22.26,4.18.62,4.2.47,4.15.77,4.15.73,4.06,1.18,4.16.65,4.28.08,3.93,1.77,4.25.27,2,3.52-1.22,4.03-1.93,3.75-1.08,4.06-2.23,3.6-1.82,3.75-1.67,3.81-1.42,3.95-1.98,3.68-1.98,3.68-1.92,3.72-2.44,3.42-2.04,3.66-2.76,3.19-1.77,3.85-2.47,3.38-2.68,3.22-2.52,3.34-2.76,3.14-2.6,3.28-3.11,2.81Z" style="fill:none; stroke:#fff; stroke-miterlimit:10; stroke-width:2.64px;"/><path d="m13.13,107.71c.07.15,1.09-.66,1.15-.51.03.08,2.73,3.96,2.76,4.05.48,1.07,84.28-41.78,85.82-38.33.66,1.47-88.79,43.09-88.17,44.47,1.21,2.71,78.36-38.66,79.72-35.61,1.29,2.89-66.72,36.3-65.53,38.96.74,1.65,56.74-27.4,57.51-25.69.07.15-8.62,12.85-8.56,12.98.18.41,12.55-6.13,12.75-5.69.11.25-9.09,11.31-8.84,11.87.15.34,16.3-7.8,16.49-7.37.17.38-11.26,10.31-11.23,10.38.32.72,14.59-7.47,14.95-6.68.14.31-15.35,9.27-15.15,9.71.46,1.04,16.55-8.31,16.89-7.54.29.65-12.51,10.42-12.41,10.65.25.57,18.2-8.79,18.45-8.24.21.47-15.24,10.77-15.17,10.93.29.66,13.88-6.66,14.06-6.28.14.32-4.19,6.74-4.08,6.99.22.48,5.6-3.08,5.81-2.6.05.11-7.18,6.43-7.03,6.75.04.09,2.92-1.61,3.04-1.36" style="fill:none; stroke:#fff; stroke-linecap:round; stroke-linejoin:round; stroke-width:3.46px;"/><path d="m5.58,3.54c.06.14-.01-.16.05-.02.04.09.06,3.26.09,3.34.14.31,3.41-1.75,3.49-1.56.02.05-.53,4.57-.49,4.67.4.9,11.17-5.65,11.41-5.1.23.51-11.72,12.88-11.61,13.11.18.4,29.49-15.25,30.27-13.52.1.23-30.57,16.13-30.4,16.53.28.63,38.1-18.44,38.63-17.25.3.67-41.82,19.82-41.01,21.65.32.73,45.49-21.01,45.74-20.43.81,1.82-44.67,23.22-44.42,23.78.53,1.19,53.47-24.49,53.7-23.99.72,1.62-57.27,32.38-56.13,34.91.82,1.84,71.03-34.17,71.94-32.13,1.1,2.47-71.48,33.62-70.92,34.87,1.02,2.28,73.41-36.56,74.82-33.42,1.18,2.65-75.1,40.3-74.35,41.97,1.2,2.7,90.27-42.89,91.23-40.75,1.12,2.51-88.9,42.66-87.91,44.86.55,1.23,96.35-45.46,97.25-43.44.95,2.13-91.79,42-90.67,44.5,1.61,3.61,93.5-43.5,94.14-42.05.56,1.25-77.7,42.99-77.18,44.15,1.19,2.67,92.85-44.11,93.83-41.91.42.93-84.8,40.43-83.19,44.02,1.43,3.2,80.18-38.14,81.05-36.2S50.95,60.95,51.15,61.39c.75,1.69,71.99-36.16,73.48-32.82,1.1,2.46-62.69,34.49-61.78,36.53.34.77,58.1-29.39,59.38-26.52.77,1.73-57.44,30.44-57.25,30.87,1.13,2.53,51.23-25.03,52.03-23.24.48,1.06-59.03,30.75-58.27,32.46.2.45,54-26.7,54.96-24.55.37.82-58.66,29.29-58.14,30.44,1.15,2.58,52.31-25.22,53-23.67.19.43-65.08,30.83-64.09,33.04,1.2,2.69,61.2-28.18,61.51-27.48" style="fill:none; stroke:#fff; stroke-linecap:round; stroke-linejoin:round; stroke-width:3.46px;"/><path d="m62.02,71.62c-1.15.61,27.62,49.37,26.61,49.91-1.98,1.06-29.44-42.66-30.02-42.35-1.67.89,19.43,34.5,18.63,34.93-.65.35-21.19-29.13-21.39-29.02-.68.36,10.38,19.01,10.19,19.11s-10.79-16.3-11.17-16.1c-1.02.55,9.34,16.97,9.11,17.09-.21.11-13.17-12.49-13.26-12.44-.49.26,8.54,15.39,8.28,15.53-.34.18-10.37-14.03-10.99-13.7-.34.18,9.04,15.57,8.46,15.87-.23.12-12.13-10.92-12.68-10.63-.84.45,6.07,10.51,5.71,10.7-.14.08-10.5-10.35-10.66-10.26-.45.24,7.46,12.19,6.71,12.59-.17.09-12.36-9.99-12.55-9.89-.38.2,6.56,11.92,6.4,12.01-.23.12-10.75-4.58-11.14-4.36-.51.27,3.28,5.68,3.08,5.78-.17.09-7.98-6.74-8.39-6.53-.12.06,5.48,8.63,4.79,8.99-.35.19-6.86-6.73-6.91-6.7-.48.26,2.15,3.47,1.92,3.6-.2.11-8.46-1.42-8.78-1.24-.45.24,2.75,4.03,2.28,4.28-.1.05-3.52,0-3.66.07-.07.04,1.35,2.44,1.31,2.46" style="fill:none; stroke:#fff; stroke-linecap:round; stroke-linejoin:round; stroke-width:3.46px;"/><path d="m127.52,18.52c-.11.06.37.43.26.49-.33.17-8.01-3.03-8.1-2.98-.3.16,7.1,11.65,6.41,12.02-.6.32-12.46-11.92-12.95-11.66-.86.46,10.34,16.91,9.31,17.46-.6.32-15.93-21.93-16.11-21.83-.28.15,13.91,23.18,12.7,23.82-.2.1-16.47-24.33-16.88-24.12-.38.2,16.75,29.74,16.06,30.11-.78.42-26.71-32.77-28.19-31.98-.64.34,24.92,43.33,23.51,44.08-.3.16-26.15-44.57-27.37-43.92-2.12,1.13,25.81,47.52,25.44,47.71-1.1.59-34.97-49.63-36.81-48.65-.61.32,30.48,55.18,29.66,55.62-1.88,1-32.88-56.75-34.85-55.7-2.39,1.27,31.76,58.04,31.13,58.37-.93.49-35.8-59.83-37.52-58.91-1.51.8,36.54,64.8,34.99,65.62-.87.46-41.53-69.07-43.17-68.2-1.05.56,41.1,72.59,39.24,73.59-2.49,1.33-44.23-71.78-45.37-71.17-3.31,1.76,43.34,75.88,41.1,77.07-1.41.75-45.36-78.83-46.23-78.36-3.25,1.74,64.55,116.24,62.55,117.31C101.55,126.86,36.69,6.15,33.44,7.88c-1.86.99,64.98,117.99,63.38,118.84-3.4,1.82-62.26-123.12-66.83-120.68-4.46,2.38,63.93,115.38,62.06,116.37-1.35.72-67.4-119.3-70.93-117.41-1.15.61,30.03,49.69,27.28,51.16-1.28.68-27.33-48.04-28.19-47.58-1.45.77,28.08,48.36,26.3,49.31-1,.53-35.1-53.44-35.88-53.03-.9.48,29.96,50.07,27.42,51.42-1.5.8-30.03-46.62-30.35-46.45-1.07.57,27.23,45.84,25.06,46.99-.82.44-26.43-34.48-27.11-34.12-.94.5,19.96,33.83,18.47,34.63-.98.52-19.39-29.05-19.56-28.96-1.24.66,13.74,25.2,13.5,25.32-.15.08-13.15-22.06-13.88-21.67-.28.15,12.19,21.77,11.74,22.02s-11.21-1.8-11.43-1.68c-.3.16,1.74,3,1.63,3.06" style="fill:none; stroke:#fff; stroke-linecap:round; stroke-linejoin:round; stroke-width:3.46px;"/></g></svg>