<?xml version="1.0" encoding="UTF-8"?><svg id="_レイヤー_2" xmlns="http://www.w3.org/2000/svg" viewBox="0 0 153.92 153.34"><g id="main"><path d="m112.85,125.02l-2.95,3.03-3.56,2.34-2.93,3.05-3.36,2.55-3.8,1.89-3.14,2.91-3.74,1.96-4.09,1.23-3.64,2.14-3.92,1.53-3.87,1.68-4.27.34-4,1.29-4.08.94-2.65-2.2-1.74-3.71-2.09-3.67-.86-4.06,1.89-2.6,3.76-1.41,3.52-1.94,3.16-2.52,3.54-1.81,3.37-2.64,3.73-2.33,2.65-3.46,2.43-3.58,2.13-3.77-.71-1.69-4.11-1.16-4.15-.71-4.3-.08-3.81-2.14-4.24-.53-3.81-1.94-3.97-1.39-3.95-1.5-4.13-1.11-4.08.3-2.39,3.2-2.6,3-3.34,2.21-2.54,3.1-2.73,2.85-4.34.48-3.44-2.7-4.16-1.54-3.4-2.73-2.4-3.67.14-3.11,1.49-4.11,2.1-3.64,2.78-3.32,1.56-3.96,1.56-3.94.68-4.25,1.89-3.82,1.17-4.17.16-4.38,1.99-4.03.27-4.35.45-4.32.24-4.34,1.04-4.24.3-4.33.6-4.29.23-4.33.1-4.34.27-4.33,2.99-2.55,4.21-.1,4.19-.17,4.11-1.07,4.22.18,4.19-.11,4.15-.52,4.12-1.29,4.24.97,4.19-.07,4.17-1.03,4.22.58,4.19-.76,4.21.45,4.2.27,4.19-1.25,4.2,1.26,4.19-.16,4.2-.3,4.2.11,4.19.56,4.21-.46,4.18.62,4.19-.05,4.18.3,4.22-.87,4.16.82,4.2-.04,4.23-.28,1.52,3.02v4.21s-.66,4.12-.66,4.12l-.21,4.2-.57,4.15-.99,4.07-2.04,3.81-.76,4.11-.99,4.06-1.29,3.97-.28,4.27-2.28,3.67-.85,4.12-.87,4.13-1.75,3.82-1.05,4.08-2.04,3.69-1.11,4.08-2.32,3.55-2.06,3.65-1.48,3.94-1.77,3.81-1.82,3.8-3.33,2.86-1.99,3.68-2.62,3.24-2.35,3.45-2.29,3.58Zm-15.8-58.46l-4.14-.23-4.07-.96-4.15.18-4.11-.3-4.07-.9-4.18.48-4.06-.47-3.16,1.32-.85,3.74-1.5,3.51-1.35,3.58-2.55,2.95,1.33,2.69,4.11.52,3.95,1.52,4.13.4,4.22-.21,4.06.92,4.05.99,4.13.52,4.18.14,2.35-2.4,1.26-3.97.79-4.11,1.59-3.96.31-4.19-2.27-1.77Z" style="fill:none; stroke:#fff; stroke-miterlimit:10; stroke-width:2.64px;"/><path d="m102.48,110.04l-2.95,3.03-3.56,2.34-2.93,3.05-3.36,2.55-3.8,1.89-3.14,2.91-3.74,1.96-4.09,1.23-3.64,2.14-3.92,1.53-3.87,1.68-4.27.34-4,1.29-4.08.94-2.65-2.2-1.74-3.71-2.09-3.67-.86-4.06,1.89-2.6,3.76-1.41,3.52-1.94,3.16-2.52,3.54-1.81,3.37-2.64,3.73-2.33,2.65-3.46,2.43-3.58,2.13-3.77-.71-1.69-4.11-1.16-4.15-.71-4.3-.08-3.81-2.14-4.24-.53-3.81-1.94-3.97-1.39-3.95-1.5-4.13-1.11-4.08.3-2.39,3.2-2.6,3-3.34,2.21-2.54,3.1-2.73,2.85-4.34.48-3.44-2.7-4.16-1.54-3.4-2.73-2.4-3.67.14-3.11,1.49-4.11,2.1-3.64,2.78-3.32,1.56-3.96,1.56-3.94.68-4.25,1.89-3.82,1.17-4.17.16-4.38,1.99-4.03.27-4.35.45-4.32.24-4.34,1.04-4.24.3-4.33.6-4.29.23-4.33.1-4.34.27-4.33,2.99-2.55,4.21-.1,4.19-.17,4.11-1.07,4.22.18,4.19-.11,4.15-.52,4.12-1.29,4.24.97,4.19-.07,4.17-1.03,4.22.58,4.19-.76,4.21.45,4.2.27,4.19-1.25,4.2,1.26,4.19-.16,4.2-.3,4.2.11,4.19.56,4.21-.46,4.18.62,4.19-.05,4.18.3,4.22-.87,4.16.82,4.2-.04,4.23-.28,1.52,3.02v4.21s-.66,4.12-.66,4.12l-.21,4.2-.57,4.15-.99,4.07-2.04,3.81-.76,4.11-.99,4.06-1.29,3.97-.28,4.27-2.28,3.67-.85,4.12-.87,4.13-1.75,3.82-1.05,4.08-2.04,3.69-1.11,4.08-2.32,3.55-2.06,3.65-1.48,3.94-1.77,3.81-1.82,3.8-3.33,2.86-1.99,3.68-2.62,3.24-2.35,3.45-2.29,3.58Zm-15.8-58.46l-4.14-.23-4.07-.96-4.15.18-4.11-.3-4.07-.9-4.18.48-4.06-.47-3.16,1.32-.85,3.74-1.5,3.51-1.35,3.58-2.55,2.95,1.33,2.69,4.11.52,3.95,1.52,4.13.4,4.22-.21,4.06.92,4.05.99,4.13.52,4.18.14,2.35-2.4,1.26-3.97.79-4.11,1.59-3.96.31-4.19-2.27-1.77Z" style="fill:none; stroke:#fff; stroke-miterlimit:10; stroke-width:2.64px;"/><path d="m46.48,120.83c.05.09,1.48-.95,1.52-.88.12.22,5.27,6.47,5.3,6.52,1.13,1.95,57.06-36.8,58.73-33.91.86,1.49-58.7,37.55-57.39,39.82.65,1.12,51.15-31.05,51.81-29.91.56.97-44.71,29.93-44.55,30.22.35.61,35.68-22.52,36.51-21.08.24.42-24.78,16.11-24.15,17.2.3.52,10.49-7.33,11.04-6.37" style="fill:none; stroke:#fff; stroke-linecap:round; stroke-linejoin:round; stroke-width:3.46px;"/><path d="m63.68,45.95c.87,1.5,67.95-41,68.71-39.67,1.54,2.68-58.64,40.39-58.19,41.17,1.65,2.86,64.31-38.96,65.1-37.59.69,1.19-55.67,37.67-55.45,38.04.88,1.53,53.54-31.47,53.78-31.05.32.56-49.54,29.75-48.89,30.87,1.29,2.24,48.02-28.39,48.31-27.89.36.62-43.72,31.63-43.56,31.9.59,1.02,42.01-24.99,42.33-24.44.57.99-44.71,27.15-43.67,28.96.43.75,42.69-26.33,43.42-25.07.42.73-45.05,30.76-44.01,32.56,1.14,1.98,39.02-23.67,39.52-22.81.28.48-42.69,26.51-42.38,27.06.64,1.11,41.13-26.19,42.19-24.36" style="fill:none; stroke:#fff; stroke-linecap:round; stroke-linejoin:round; stroke-width:3.46px;"/><path d="m38.69,83.28c.38.65,21.24-13.08,21.6-12.47.15.26-12.64,12.49-12.48,12.77.18.32,19.53-12.66,20.13-11.62.19.33-17.89,15.28-17.71,15.59.54.94,22.13-14.19,22.74-13.13.35.61-8.45,14.35-8.13,14.91,1.03,1.79,62.59-38.61,63.66-36.75.33.58-51.71,38.83-51.42,39.34.55.95,45.48-27.62,46.07-26.6.59,1.02-51.33,35-50.04,37.25.45.78,47.18-28.55,47.75-27.57.84,1.45-51.97,32-51.81,32.27,1.01,1.74,49.01-30.87,50.12-28.94" style="fill:none; stroke:#fff; stroke-linecap:round; stroke-linejoin:round; stroke-width:3.46px;"/><path d="m25.78,10.56c.1.17,5.99-3.67,6.08-3.51.29.5-7.73,10.91-7.65,11.05.26.46,22.06-14.15,22.67-13.09.56.97-22.13,18.56-21.66,19.36.77,1.34,32.51-20.91,33.44-19.3.58,1-37.61,25.87-37.44,26.16.25.44,42.21-26.91,43.31-25.01.2.34-43.86,28.47-43.45,29.18.35.61,52.2-31.61,52.84-30.51.72,1.25-56.26,40.65-54.88,43.04.61,1.05,74.98-46.39,76.32-44.06.29.51-77.74,46.11-76.53,48.21C20.85,55.61,102.1,3.2,102.45,3.81c1.09,1.89-89.13,58.32-87.31,61.48.61,1.05,102.64-61.15,103.46-59.73,2.04,3.53-108.35,62.88-106.22,66.57C14.85,76.38,125.02,5.59,125.67,6.72c1.05,1.83-120.36,71.2-118.41,74.58.59,1.03,41.22-25.2,41.83-24.15.33.57-44.11,30.96-43.49,32.04.35.6,38.68-23.75,39.29-22.69.68,1.17-31.64,25.11-31.33,25.65,1.05,1.81,37.51-23.29,38.21-22.06.38.66-35.91,24.71-35.67,25.12.74,1.28,40.42-24.38,40.87-23.6.94,1.63-39.81,25.94-39.17,27.04.05.09,2.25-1.41,2.29-1.32" style="fill:none; stroke:#fff; stroke-linecap:round; stroke-linejoin:round; stroke-width:3.46px;"/><path d="m77.66,102.2c-.44.29,9.31,12.98,8.93,13.24-.57.39-13.42-8.52-13.58-8.41-.82.55,9.76,13.62,9.37,13.89-.27.18-12.58-9.51-12.67-9.45-.47.32,7.84,11.34,7.71,11.42-.12.08-8.6-9.17-8.83-9.01-.73.49,6.93,9.92,6.76,10.03-.15.1-11.49-6.72-11.56-6.68-.35.24,6.61,9.39,6.42,9.52-.23.15-9.11-8.59-9.52-8.31-.25.17,7.37,10.01,6.94,10.29-.17.12-11.3-6.58-11.72-6.3-.64.43,4.44,5.98,4.16,6.17-.11.07-9.73-6.49-9.85-6.4-.35.23,6.22,7.99,5.65,8.37-.1.07-9.61-3-9.72-2.93-.22.15,3.09,4.39,3,4.45" style="fill:none; stroke:#fff; stroke-linecap:round; stroke-linejoin:round; stroke-width:3.46px;"/><path d="m90.39,56.32c-.95.64,23.62,33.1,22.73,33.7-.45.31-21.23-23.88-21.71-23.56-.4.27,20.16,27.07,18.85,27.95-.45.3-21.84-24.98-22.26-24.7-1.04.7,18.93,25.55,17.76,26.34-1.05.71-22.64-19.82-23.6-19.17-.89.6,19.24,26.54,18.32,27.16-.35.24-29.2-29.01-29.51-28.8-.74.5,23.48,33.1,22.69,33.63s-31.62-37.6-33.32-36.45c-.71.48,29.95,42.47,29.05,43.07-1.27.85-34.73-43.24-34.97-43.09-.8.54,13.44,18.01,12.55,18.61" style="fill:none; stroke:#fff; stroke-linecap:round; stroke-linejoin:round; stroke-width:3.46px;"/><path d="m137.89,8.34c-.11.07.43.42.33.49-.29.2-7.98-1.73-8.07-1.68-.28.19,8.51,11.19,7.85,11.63-.56.38-13.58-10.51-14.04-10.2-.83.56,12.57,16.5,11.58,17.17-.58.39-18.47-20.7-18.64-20.58-.27.18,17,22.67,15.83,23.46-.19.13-19.49-23.41-19.88-23.14-.37.25,20.71,29.24,20.03,29.69-.75.51-30.58-30.85-32.01-29.88-.63.43,30.93,42.84,29.53,43.78-.29.2-32.07-43.93-33.29-43.11-2.1,1.42,32.45,47.33,32.09,47.57-1.08.73-41.53-48.34-43.35-47.11-.61.41,38.67,55.57,37.85,56.12-1.89,1.28-41-56.94-42.98-55.61-2.39,1.62,40.62,58.85,39.98,59.28-.94.63-44.63-60.29-46.37-59.12-1.52,1.03,46.61,65.74,45.05,66.79-.88.59-51.79-69.63-53.45-68.5-1.06.72,52.52,73.79,50.63,75.07-2.54,1.71-55.34-72.85-56.51-72.06-3.37,2.27,55.72,77.69,53.44,79.22-1.44.97-57.81-80.62-58.7-80.02-1.23.83,27.1,38.56,26.35,39.06-1.71,1.15-35.49-38.07-36.65-37.29-.66.45,25.17,36.09,24.6,36.47-1.1.74-26.79-38.99-28.27-37.99-1.6,1.08,24.59,35,23.91,35.45-.45.3-31.79-36.53-32.96-35.74-.83.56,25.36,33.32,23.38,34.66-.85.57-23.38-31.46-23.95-31.07-1.05.71,23.55,32.15,22.27,33.01-.67.45-30.47-34.31-30.99-33.96-.72.48,28.9,38.47,26.87,39.84-.95.64-24.72-28.3-24.93-28.16-.83.56,25.01,33.46,23.34,34.6-.59.4-24.23-22.92-24.72-22.59-1.42.95,40.65,55.45,38.42,56.96-1.75,1.18-39.78-53.13-40.08-52.93-2.03,1.37,33.32,48.57,32.94,48.83-.32.22-32.22-47.38-33.73-46.36-.49.33,31.93,45.64,31.14,46.17-1.61,1.09-31.53-31.91-32.36-31.35-1.44.97,18.53,26.36,18.01,26.71-.82.55-19.62-16.12-19.82-15.99-.84.57,10.45,15.15,10.29,15.25-.31.21-13.32-14.98-13.87-14.62s14.04,19.08,13.23,19.62c-.21.14-15.64-11.87-15.8-11.76-.32.21,12.12,17.07,11.71,17.35-.47.32-12.77-9.54-13.2-9.25-.6.4,8.22,11.11,7.72,11.45s-11.25-6.79-11.64-6.53c-.67.45,6.5,8.71,6.07,9-.4.27-9.89-7.53-10.07-7.41-.25.17,1.33,1.55,1.13,1.68" style="fill:none; stroke:#fff; stroke-linecap:round; stroke-linejoin:round; stroke-width:3.46px;"/></g></svg>