<?xml version="1.0" encoding="UTF-8"?><svg id="_レイヤー_2" xmlns="http://www.w3.org/2000/svg" viewBox="0 0 231.58 100.74"><g id="main"><polygon points="211.11 60.86 215.31 59.73 219.66 59.06 223.51 56.92 227.09 54.56 230.04 51.49 231.58 47.37 229.8 43.52 226.61 40.94 223.32 38.21 219.17 37.29 215.17 35.88 210.94 35.76 206.48 35 206.31 30.98 209.66 28.47 213.73 26.75 216.65 23.45 217.93 19.41 218.02 15.19 216.35 11.11 212.94 8.24 209.03 6.21 204.83 4.89 200.45 4.56 196.31 3.55 192.04 3.61 187.85 2.97 183.62 2.8 179.4 2.34 175.21 1.61 170.96 1.69 166.74 1.32 162.49 1.52 158.28 .84 154.04 .83 149.8 .7 145.56 .9 141.34 .18 137.09 .07 132.84 .64 128.61 .19 124.38 .59 120.14 0 115.91 .75 111.67 .4 107.44 .93 103.2 .79 98.96 .2 94.73 .88 90.49 .87 86.26 1.07 82.03 .8 77.79 .61 73.57 1.47 69.33 1.35 65.1 1.53 60.87 1.69 56.62 1.28 52.41 1.93 48.15 1.54 43.98 2.61 39.71 2.29 35.53 3 31.36 3.72 27.07 4 23.05 5.55 18.87 6.52 14.92 8.24 11.39 10.75 8.86 14.26 7.82 18.38 8.02 22.7 10.76 26.06 13.91 28.97 17.95 30.45 21.88 31.66 24.49 34.79 25.07 38.42 22.66 41.41 19.05 43.05 15.24 44.47 11.45 45.98 7.61 47.37 4.01 49.35 1.54 52.6 0 56.14 .18 60.06 1.52 64.15 4.76 67.14 8.76 69.02 12.94 70.41 17.33 70.92 21.69 71.35 26.05 72.36 30.38 72.13 32.33 75.1 30.66 78.99 29.89 83.07 33.26 85.67 37.4 87.01 41.61 88.53 46.07 88.59 50.41 89.59 54.85 89.74 59.27 89.98 63.67 90.34 68.07 90.98 72.53 90.4 76.94 90.76 81.36 91.33 85.79 91.25 90.38 91.11 92.33 94.5 94.31 97.8 96.82 100.74 98.64 100.54 99.52 95.84 101.32 91.46 105.89 91.19 110.48 91.39 115.06 91.33 119.65 91.73 124.23 91.24 128.8 91.03 133.1 91.47 137.39 91.36 141.69 91.29 145.98 91.18 150.27 90.89 154.56 90.79 158.86 90.76 163.17 91.08 167.44 90.33 171.74 90.37 176.03 90.06 180.34 90.25 184.65 90.21 188.89 89.18 193.17 88.98 197.51 89.43 201.74 88.53 206.06 88.04 210.32 87.07 214.17 85.01 217.85 82.65 219.9 78.81 219.36 74.81 216.94 71.2 212.64 70.16 208.74 69.13 206.51 66.05 207.33 62.4 211.11 60.86" style="fill:#fff;"/></g></svg>