<?xml version="1.0" encoding="UTF-8"?><svg id="_レイヤー_2" xmlns="http://www.w3.org/2000/svg" viewBox="0 0 232.02 100.82"><g id="main"><polygon points="211.47 60.91 215.81 60.32 219.87 58.68 223.76 56.77 227.55 54.78 230.58 51.7 232.02 47.49 230.34 43.52 226.99 41.07 223.39 39.05 219.51 37.55 215.44 36.6 211.29 36.25 207.17 34.64 206.77 31.16 209.95 28.28 213.83 26.45 216.96 23.52 218.86 19.63 218.23 15.37 216.32 11.57 212.97 8.9 209.34 6.49 205.06 5.65 200.84 4.59 196.69 3.68 192.48 3.24 188.27 2.71 184.06 2.22 179.78 2.58 175.56 2.15 171.33 2.06 167.1 1.86 162.87 1.57 158.64 1.41 154.41 1.37 150.19 .62 145.95 .78 141.71 .66 137.47 .38 133.23 .31 129 0 124.76 .6 120.52 .59 116.3 .88 112.06 .88 107.81 .44 103.58 .55 99.34 .77 95.11 .8 90.88 1.09 86.64 1.14 82.42 1.41 78.17 1.02 73.93 .87 69.7 .77 65.46 1.13 61.23 1.31 57 1.36 52.76 1.49 48.57 2.27 44.31 1.97 40.1 2.51 35.88 2.87 31.65 3.17 27.4 3.88 23.24 5.02 19.38 6.95 15.22 8.21 12.2 11.34 9.4 14.47 8.39 18.52 8.74 22.69 10.79 26.51 14.41 28.89 18.4 30.37 21.99 32.26 25.34 34.6 25.76 38.65 23.38 42.02 19.68 43.89 15.79 45.09 11.9 46.26 8.25 48.04 4.5 49.62 1.5 52.42 .5 56.28 0 60.28 1.73 64.4 5.05 67.41 9.06 69.36 13.22 70.95 17.6 71.74 22.03 72.02 26.44 72.25 30.67 72.69 32.67 75.21 31.26 79.23 30.06 83.3 33.43 86.16 37.61 87.83 42 88.61 46.42 89.02 50.84 89.27 55.23 89.81 59.65 90.08 64.08 90.12 68.49 90.25 72.89 91.08 77.31 91.47 81.74 91.41 86.18 91.15 90.75 91.25 93.15 94.32 94.71 97.91 97.26 100.82 98.19 100.38 100.5 96.17 101.86 91.7 106.28 91.22 110.86 92.06 115.45 91.79 120.03 91.39 124.62 91.84 129.19 91.27 133.48 91.65 137.78 91.91 142.07 91.59 146.36 91.29 150.66 91.51 154.95 91.08 159.24 90.8 163.54 90.81 167.83 90.55 172.12 90.26 176.44 90.83 180.72 90.32 184.99 89.72 189.3 89.81 193.6 89.69 197.83 88.7 202.15 89.01 206.51 88.5 210.73 87.28 214.75 85.48 217.84 82.38 220.19 78.91 220.02 74.8 217.22 71.5 213.06 70.1 209.44 68.59 206.88 66.18 207.76 62.58 211.47 60.91" style="fill:#fff;"/></g></svg>