<?xml version="1.0" encoding="UTF-8"?><svg id="_レイヤー_2" xmlns="http://www.w3.org/2000/svg" viewBox="0 0 70 70.88"><g id="main"><path d="m53.04,52.09c1.88,1.94,5.04,1.38,7.2.21,1.77-1.75,3.01-3.94,4.71-5.76,7.99-10.19,6.27-26.27-3.59-34.63-6.93-5.72-15.44-9.58-24.35-10.85-4.91-.72-9.95-1.67-14.86-.52-4.23,1.09-8.61,3.61-10.15,7.9-.37,3.26-.17,7.61,3.05,9.45,3.2,1.42,6.87,1.14,10.3.83,5.84-.62,12.2.78,16.49,5.03,4.31,4.33,4.87,10.81,5.67,16.55.5,4.38,2.48,8.6,5.53,11.8ZM27.35,3c8.21-.08,16.73.93,24.08,4.83,4.38,2.33,8.71,5.16,11.64,9.26,4.58,6.58,5.7,15.64,2.17,22.93-1.22,2.48-2.74,5.08-5.28,6.38-2.5-.39-3.65-2.87-4.62-4.89-2.37-4.95-2.19-10.65-4.54-15.6-2.04-4.17-4.97-8.09-9.02-10.48-4.5-2.83-9.86-4.04-15.11-4.29-4.06.04-8.71,2.39-12.22-.66,2.58-4.6,7.63-7.55,12.9-7.49Z" style="fill:#fff;"/><path d="m34.03,23.25c-5.2-2.79-11.27-3.1-17.02-2.27-3.69.47-7.41,1.79-10.07,4.46-2.76,2.79-3.45,7.55-1.28,10.9,1.13,2.21,2.68,5.24,5.7,4.6,3.96-.6,8.77-.89,11.7,2.39,3.24,4.11,4.27,9.41,5.8,14.28,1.11,3.28,3.82,6.48,7.59,6.36,2.76.31,4-2.7,5.32-4.56,3.63-4.85,4.91-11.08,4.81-17.05-.58-7.88-5.06-15.91-12.55-19.11Zm5.24,33.8c-.93.95-2.68,2.02-3.78.78-1.8-1.94-1.67-4.81-2.23-7.24-.7-4.93-3.3-9.43-6.67-13.04-2.43-2.48-5.74-3.67-8.96-4.71-3.49-.74-6.87.89-10.15,1.88-.21-2-.64-4.23.7-5.92,2.85-4.15,8.21-5.36,12.96-5.41,6.33-.39,12.84,1.96,17.33,6.46,3.36,4,5.43,9.27,5.26,14.51-.43,4.46-.95,9.49-4.44,12.69Z" style="fill:#fff;"/><path d="m10.63,70.6c3.63.95,7.31-.62,10.19-2.81,2.68-2.31,3.84-6.01,3.74-9.47-.04-3.28.33-6.75-1.22-9.74-2.46-5.16-9.06-7.51-14.38-5.8-3.59.99-6.89,3.47-8.23,7.02-1.49,3.4-.27,7.06-.04,10.57.19,5.22,4.75,9.76,9.93,10.23Zm-1.71-24.27c4.73-2.02,11.45.47,12.46,5.84,1.49,5.76-3.14,12.55-9.31,12.22-5.32.1-9.64-4.93-9.41-10.11.23-3.61,3.01-6.66,6.27-7.96Z" style="fill:#fff;"/></g></svg>